<svg xmlns="http://www.w3.org/2000/svg" viewBox="0 0 389.42 235.29"><g id="aac532e9-f06f-4690-aaa8-6371ee3248e8" data-name="Layer 2"><g id="aa0422db-b5d9-4e71-a0b6-72ce9de8fd6e" data-name="Шар 1"><path d="M371.62,107.07c-2.47,8.87,1.59,12,7.7,17.32,4.27,3.7,7.48,7.9,7.34,13.78-.05,2.48-1.59,4-3.72,4.89a129.93,129.93,0,0,1-36.84,9.28q5.91,10.38,11.8,20.81c2.26,4-1.45,8.4-5.73,7.44q-20-4.43-40-8.88c.25,0,.74,2.86.82,3.2.3,1.12.56,2.23.83,3.35q.78,3.35,1.48,6.71c.92,4.51,1.72,9,2.38,13.57q.43,2.94.8,5.89c.21,1.72.54,3.14-.55,4.72-.8,1.18-2.33,2.24-3.79,1.89-1.06-.26-2.08-.56-3.13-.85-2.34-.66-4.69-1.35-7-2l-1.1-.32a234.07,234.07,0,0,1-39.66-15.24,233.41,233.41,0,0,1-9,32.19c-1.08,3.05-4.47,4.81-7.46,3l-37.73-22.25q-4.92,11.79-9.87,23.6c-1.27,3-4.3,4.78-7.46,3a247.29,247.29,0,0,1-37.48-25.59q-4.74,12.48-9.51,25c-1.33,3.5-5.55,5.09-8.49,2.23a185.07,185.07,0,0,1-28.88-36.2l-28.7,22.46c-2.89,2.26-7.41,1.79-8.49-2.25A128.41,128.41,0,0,1,65.77,185a116.64,116.64,0,0,1-34.72,10.72c-3.65.54-7.39-2.15-6.24-6.24a403.22,403.22,0,0,0,9.57-42.6A133.66,133.66,0,0,1,3.7,144.16c-3.68-.74-5-6-2.24-8.47L20.6,118.33c6.51-5.91,15.09-11,13.79-20.77-2.07-15.85-3.15-30.25.76-46,1-3.92,5.73-4.65,8.48-2.24l30,26.12L93.4,46.67c2-2.89,5.31-3.18,8-1l22.5,18.21Q134,52.18,144.05,40.53c1.75-2,5.4-1.88,7.17,0a162.63,162.63,0,0,0,21.46,19.11,234.92,234.92,0,0,0,14.5-25.15,5.1,5.1,0,0,1,7-1.81,277.26,277.26,0,0,1,27.16,21A322.91,322.91,0,0,1,239,2.48c1.71-3.87,6.77-2.68,8.77,0q18,24.23,36,48.46l17.09-27.22a5.12,5.12,0,0,1,8.76,0q14.1,24.49,26.27,50l45.86-26.84c3.69-2.17,8.84,1.45,7.44,5.73C383.33,70.73,376.72,88.75,371.62,107.07Z" style="fill:#fff"/><path d="M250.47,116.61a3.59,3.59,0,0,1-.16-.83,4.08,4.08,0,0,0-.45-1.57l0-.19a3.87,3.87,0,0,0-.13-.61c-.13-.43-.29-.85-.45-1.27l-.17-.43c-.18-.47-.36-1-.59-1.44a16.78,16.78,0,0,0-1-1.68c-.19-.3-.4-.58-.62-.87l-.26-.35-.09-.11c0-.31,0-.62,0-.93a19.86,19.86,0,0,0-.1-2.16,6.93,6.93,0,0,0-.45-1.59c-.08-.21-.15-.41-.22-.62a.59.59,0,0,0-.25-.31,1.7,1.7,0,0,0-2.28,0l-.48.4a11.75,11.75,0,0,0-1.29,1.16,2.08,2.08,0,0,1-2.63.7,5.45,5.45,0,0,0-.61-.2,3.23,3.23,0,0,1-.67-.26A8.56,8.56,0,0,0,234,102c-.48-.07-1-.11-1.44-.16s-.85-.08-1.28-.14c-.28,0-.57-.1-.85-.16a9.08,9.08,0,0,0-1.4-.21c-1.3-.06-2.62-.06-3.89-.06h-.77c-1.42,0-2.85,0-4.27,0h-.52a34.38,34.38,0,0,0-3.49.21l-.88.13a9.88,9.88,0,0,1-1.93.2c-1.09,0-2.18,0-3.27,0h-1a.68.68,0,0,1-.69-.42c-.3-.58-.62-1.14-.94-1.71l-.36-.64a1.91,1.91,0,0,0-.45-.62,1.62,1.62,0,0,0-1-.29c-.53,0-.71.68-.72.92s0,.54,0,.8,0,.38,0,.57v1.63a15.38,15.38,0,0,1-.13,3,8.24,8.24,0,0,1-1.42,2.68c-.35.54-.65,1-.77,1.24a.83.83,0,0,1-.07.13,1.8,1.8,0,0,0-.21.46c-.14.55-.3,1.19-.42,1.84a11.4,11.4,0,0,0-.16,1.51c0,.47,0,.94,0,1.42,0,.31,0,.63,0,.94,0,.53,0,1,0,1.57s0,1.21,0,1.81c0,1.68,0,3.35,0,5,0,.24,0,.49,0,.73l0,.59c0,.18,0,.36,0,.55s0,.66,0,1,.08.71.14,1.06.08.55.11.83a7.93,7.93,0,0,0,1.72,4.64,21.76,21.76,0,0,0,2,2.05c.56.5.75.93.62,1.44a7.19,7.19,0,0,1-.55,1.31l-.17.34a5.57,5.57,0,0,1-.33.57,4.3,4.3,0,0,0-.61,1.36,7.86,7.86,0,0,0,0,2.78,17.11,17.11,0,0,0,1.26,3.52l.49,1.14c.46,1.13.82,2.08,1.12,3a1.88,1.88,0,0,0,2,1.53c1,0,1.91-.09,2.84-.17l1-.08a1.19,1.19,0,0,0,.46-.16,2.31,2.31,0,0,0,.88,1,1.76,1.76,0,0,0,2.3-.69l.49-.72a6.42,6.42,0,0,0,.61.9,1.77,1.77,0,0,0,2,.64l.34-.12A7,7,0,0,0,222,152c.35-.2.5-.21.67-.16a3.78,3.78,0,0,0,2.44,0,.93.93,0,0,0,.65-.7l0-.34a9.39,9.39,0,0,0,.07-1.84,2,2,0,0,1,0-.48v-.19c0-.32.05-.64.05-1a5.4,5.4,0,0,0,0-.56,2.8,2.8,0,0,1,0-.77,6.48,6.48,0,0,1,.56-1.5.54.54,0,0,1,.25-.22,12.18,12.18,0,0,1,4-.58h.07a6,6,0,0,1,2.08.47,13.31,13.31,0,0,1,2.07,1,.68.68,0,0,1,.16.33,3,3,0,0,1-.44,2,.37.37,0,0,1-.14.12,1.2,1.2,0,0,1-1.24-.36,2.12,2.12,0,0,0-1.43-.69,10.86,10.86,0,0,0-2.64.25,2.8,2.8,0,0,0-2.23,1.81,3.27,3.27,0,0,0,1.23,3.81,18,18,0,0,0,4.06,1.95l.33.13c.66.25,1.33.47,2,.69l.62.2.55.2a9.35,9.35,0,0,0,1.53.45,8.32,8.32,0,0,0,1.2.1,6.64,6.64,0,0,0,2-.32,16.26,16.26,0,0,0,2-.84,7.29,7.29,0,0,0,.81-.46,7.61,7.61,0,0,1,.82-.46,7.31,7.31,0,0,0,2.21-1.71,1.44,1.44,0,0,0,.34-1.15,2.44,2.44,0,0,1,0-.27,6,6,0,0,0-.05-1.41c0-.18,0-.36-.05-.55,0-.48-.12-1-.19-1.37,0-.09,0-.18,0-.27a2.37,2.37,0,0,0-.35-1.11,3.55,3.55,0,0,1-.48-1.31,5.74,5.74,0,0,0-.36-1.16l0-.1a1.1,1.1,0,0,0-.41-.59l-.26-.15a17,17,0,0,0-2-1.12,2.15,2.15,0,0,1-1.1-1.19v-.13a2.18,2.18,0,0,0,0-.25l-.05-.81c0-.43,0-.86-.06-1.29a4.86,4.86,0,0,1,0-.54,5.65,5.65,0,0,0-.08-1.22.16.16,0,0,1,.06-.17,6.21,6.21,0,0,1,.73-.51,3.75,3.75,0,0,0,1.54-1.5,6.41,6.41,0,0,0,1.51-1.71c.17-.25.34-.5.53-.73a4.37,4.37,0,0,0,.51-.88c.07-.13.13-.26.21-.39l.45-.79c.31-.52.61-1,.89-1.58a11.23,11.23,0,0,0,.48-1.15l.19-.52a9.19,9.19,0,0,1,.49-.92,5.07,5.07,0,0,0,.77-1.77,9.82,9.82,0,0,1,.32-1.17q.14-.37.24-.75a2.47,2.47,0,0,0,.05-.44.5.5,0,0,1,0-.19,6.48,6.48,0,0,0,.25-2.2v-1.4c0-.08,0-.16,0-.24A1.78,1.78,0,0,0,250.47,116.61Zm-9.91,18a2.09,2.09,0,0,0-1.09,2.07,34.8,34.8,0,0,1,.06,3.54A2.24,2.24,0,0,0,240,142l.12.12a2.73,2.73,0,0,0,1.23.92,3.58,3.58,0,0,1,1.09.54,8,8,0,0,0,.7.41.93.93,0,0,1,.42.37c.2.54.37,1.1.53,1.66.09.33.19.67.3,1a10.43,10.43,0,0,1,.54,3.47v.29a2.06,2.06,0,0,1-.05.6,6.36,6.36,0,0,1-1.44,1.25,14.5,14.5,0,0,1-1.61.88l-.46.23c-.36.18-.72.34-1.09.5l-.31.14a3.71,3.71,0,0,1-2.34.24,29.6,29.6,0,0,1-3.46-1.1l-.43-.15c-.51-.19-1-.4-1.48-.62l-1-.43a8.52,8.52,0,0,1-2.11-1.21,3,3,0,0,1-.42-.46l-.05-.07-.1-.55-.06-.2s0-.08,0-.08a3.33,3.33,0,0,1,.16-.51l.08-.2s0-.08,0-.05a3.45,3.45,0,0,1,1.6-.84l.3,0c.63-.09,1-.13,1.29.22a3.64,3.64,0,0,0,3.8.64,1,1,0,0,0,.38-.41l.13-.23a3.59,3.59,0,0,0,.64-2,.38.38,0,0,1,0-.15,1.26,1.26,0,0,0,0-.6.53.53,0,0,0,.09-.21.89.89,0,0,0-.29-.86,3.67,3.67,0,0,0-.89-.58c-.18-.09-.37-.16-.55-.23a2.77,2.77,0,0,1-.69-.34,5.37,5.37,0,0,0-2.38-1,14.42,14.42,0,0,0-2.62-.12h-.16a8.91,8.91,0,0,0-1.08.12c-.24,0-.47.08-.71.1a3.21,3.21,0,0,0-3.36,3,14.56,14.56,0,0,0-.14,2.46c0,.31,0,.61,0,.91,0,.48,0,1,0,1.43v.21a1.8,1.8,0,0,1-.81-.08,3.5,3.5,0,0,0-1.9,0A5.79,5.79,0,0,0,220,151l-.37.2a4.83,4.83,0,0,1-.36-.56l0-.1a1.63,1.63,0,0,1-.18-.44,2.37,2.37,0,0,1,0-.51,5,5,0,0,0,.06-.56,1.32,1.32,0,0,0-.31-1,1.37,1.37,0,0,0-1.06-.27,1.23,1.23,0,0,0-1.13,1.13,5.54,5.54,0,0,1-1.16,2.24l-.06-.13c-.12-.22-.23-.44-.36-.65a1.5,1.5,0,0,0-1.11-.78,1.13,1.13,0,0,0-.9.44,1.09,1.09,0,0,0-1.16-.31.51.51,0,0,0-.43.5c0,.08,0,.22,0,.33-.6,0-1.23.06-1.87,0-.08,0-.13,0-.14,0a4.14,4.14,0,0,0-.49-1.26c-.27-.52-.38-1-.61-1.58s-.53-1.23-.8-1.84-.38-1.23-.63-1.84a2.41,2.41,0,0,1-.19-.55,6.93,6.93,0,0,0-.17-.79,4.42,4.42,0,0,1-.2-1.88c.12-.63.61-1,.71-1.66a1.52,1.52,0,0,1,.24-.51,4,4,0,0,0,.27-.55,4.11,4.11,0,0,1,.21-.42,2.1,2.1,0,0,0,.21-2.06,2,2,0,0,1-.09-.26,1.78,1.78,0,0,0-.43-.84l-1-.95-.7-.67a5.1,5.1,0,0,1-1.37-1.95,15.69,15.69,0,0,1-.65-2.6c-.12-1-.16-1.94-.19-2.9v-.55c0-.53,0-1,0-1.58,0-.36,0-.71,0-1.06,0-.65-.11-1.23-.09-1.89s0-1.52.05-2.27a33,33,0,0,1,.08-5.63,14.76,14.76,0,0,1,.21-2.28,7.24,7.24,0,0,1,1.38-2.12,15.14,15.14,0,0,0,1.05-2.42,4.3,4.3,0,0,0,.51-2.32l0-.61v-.62a1.8,1.8,0,0,0,1.17,1,9.21,9.21,0,0,0,1.65.25c1.78,0,3.4.05,5,0a6,6,0,0,0,1.22-.22,6.26,6.26,0,0,1,.88-.18c1-.09,2-.14,3.32-.16q3,0,6,0h.59a17.54,17.54,0,0,1,3.72.27,17.87,17.87,0,0,0,2.15.29l.23,0a7.73,7.73,0,0,1,2.74.69l.69.38a8.73,8.73,0,0,0,1.3.64c1.42.52,3.36,1.24,5-.46a3.2,3.2,0,0,1,.42-.33,4.46,4.46,0,0,0,.43-.33.72.72,0,0,0,.23-.38c.24-.18.49-.36.76-.54l0,.08a4.49,4.49,0,0,1,.35,2.22,4.87,4.87,0,0,0,1,3.67,9.5,9.5,0,0,1,1.2,2,35.59,35.59,0,0,1,1.24,3.48,11.41,11.41,0,0,1,.47,3.63v.62a9.07,9.07,0,0,1-.2,2.35c-.08.3-.13.61-.19.91a6,6,0,0,1-.28,1.18,17.32,17.32,0,0,1-.73,1.6c-.17.32-.33.65-.49,1s-.36.84-.54,1.26-.29.68-.44,1l-.14.34a7.13,7.13,0,0,1-.57,1.14c-.31.48-.66.93-1,1.38s-.5.66-.73,1A9.73,9.73,0,0,1,240.56,134.66Z"/><path d="M231.09,127.31a.55.55,0,0,0-.52.17.53.53,0,0,0-.09.54c.17.41,0,.62-.45,1.1l-.25.26a3.07,3.07,0,0,0-.34.38,1.18,1.18,0,0,1-1.17.54,5.39,5.39,0,0,1-3.19-1,.26.26,0,0,1-.05-.12c0-.27,0-.53,0-.8s0-.32,0-.54c0-.55,0-1.09-.05-1.64a.88.88,0,0,0-.3-.57.63.63,0,0,0-.8-.06.91.91,0,0,0-.31.31c-.15.26-.29.52-.42.79-.27.5-.52,1-.81,1.42a8.05,8.05,0,0,1-1.14,1.4,6.35,6.35,0,0,1-1.21.92l-.15.09a4.07,4.07,0,0,1-1.2.57,7.31,7.31,0,0,1-4-.67,1,1,0,0,0-.95,0,.93.93,0,0,0-.31.85,2,2,0,0,0,.1.44.54.54,0,0,0,.47.38s.09,0,.09,0a8.74,8.74,0,0,0,3.65.88h.17a3.58,3.58,0,0,0,2.57-.86,3.56,3.56,0,0,1,.75-.54,5.53,5.53,0,0,0,2.37-2.37c0,.19,0,.39,0,.59a1.25,1.25,0,0,0,.4.89,1.3,1.3,0,0,0,.51.29.71.71,0,0,0,.36.41l.13.06a6.65,6.65,0,0,0,1.42.51,13.15,13.15,0,0,0,2.26.26,1.63,1.63,0,0,0,1.49-.7,8.34,8.34,0,0,1,.8-.94l.43-.47.19-.21a4.44,4.44,0,0,0,.59-.75,1.08,1.08,0,0,0,.06-1A1.46,1.46,0,0,0,231.09,127.31Z"/><path d="M232.51,117.73a.73.73,0,0,0-.12-.35h0l-.09-.13a3,3,0,0,0-.72-.81c-.31-.21-.73-.11-1.27.32a1,1,0,0,0-.32.44.46.46,0,0,1-.05.1,1.22,1.22,0,0,0,0,1.73,1.86,1.86,0,0,0,1.29.65h0a1.07,1.07,0,0,0,.78-.32,2,2,0,0,0,.41-.87,2.29,2.29,0,0,1,.08-.28.49.49,0,0,0,0-.41Z"/><path d="M215.64,118.94h0a1.48,1.48,0,0,0,1.53-1.58.76.76,0,0,0,0-.15.88.88,0,0,0-.25-.69.82.82,0,0,0-.61-.19,1.59,1.59,0,0,0,.07-.2.54.54,0,0,0-.06-.49.58.58,0,0,0-.44-.26.81.81,0,0,0-.64.08,6,6,0,0,0-1.14.77,1.38,1.38,0,0,0-.39,1,1.58,1.58,0,0,0,.48,1.14A2,2,0,0,0,215.64,118.94Z"/><path d="M192.06,130.54l0-.35a23.14,23.14,0,0,0-.29-2.76,1.74,1.74,0,0,0-.78-1.16,2.48,2.48,0,0,0-2.52.09l-.5.34-.25.18a2.25,2.25,0,0,0-1.17,1.79c0,.77,0,1.55,0,2.32,0,.2,0,.41,0,.62a5.46,5.46,0,0,0-.1,1.07,4.73,4.73,0,0,1,0,.54c0,.26-.11.86.15,1.05a1,1,0,0,0,.75.13c.14-.06.24-.31.32-.42a1.23,1.23,0,0,0,.2-.6c.07-.47.06-1,.1-1.44.06-.68.06-1.36.12-2l0-.27a2.75,2.75,0,0,1,.2-1,2.89,2.89,0,0,1,1.22-1.18c.22-.11.36-.12.41-.09a.39.39,0,0,1,.11.26c.11,1,.2,2,.26,3l0,.32a2.74,2.74,0,0,1-.07,1.2,4.87,4.87,0,0,1-2,2.45,1.43,1.43,0,0,0-.38.36.37.37,0,0,1,0-.11,2.77,2.77,0,0,0-.46-.71,13,13,0,0,0-4.47-2.44l-.18-.07a5,5,0,0,0-.92-.24,4.32,4.32,0,0,1-.86-.23,6.46,6.46,0,0,0-2.34-.41h-.38c-.62,0-1.25-.13-1.92-.23-.3,0-.61-.1-.93-.17l.17-.21a15.26,15.26,0,0,0,2.15-3.4,27.79,27.79,0,0,0,1.32-4.93,20.62,20.62,0,0,0,.4-7,11.78,11.78,0,0,0-.74-2.47c-.17-.45-.34-.91-.48-1.37a24.7,24.7,0,0,0-1-2.61c-.16-.37-.32-.73-.47-1.1l-.25-.62c-.23-.58-.46-1.16-.71-1.73a2.78,2.78,0,0,1-.22-1.36,16,16,0,0,0-.19-2.76,5.68,5.68,0,0,0-.48-1.58,1.13,1.13,0,0,0-1-.62,1,1,0,0,0-1,.57,1.85,1.85,0,0,1-.56.64,5.09,5.09,0,0,0-1.74,2.47l-.05.11a9.58,9.58,0,0,0-.37,1,8.4,8.4,0,0,1-.46,1.19l-.07.15c-.35.68-.64,1.28-1.41,1.42a5,5,0,0,0-1.32.38,5.48,5.48,0,0,1-3.22.29c-1.28-.13-2.58-.36-3.84-.58-.78-.13-1.55-.27-2.33-.39-1.16-.17-2.3-.28-3.4-.34h-.2a12.87,12.87,0,0,1-4-.64.6.6,0,0,1-.48-.58,5.48,5.48,0,0,0-1.29-2.72l-.18-.24a15.9,15.9,0,0,0-1.47-1.69q-.48-.49-.93-1a2.11,2.11,0,0,0-2.64-.54,4.07,4.07,0,0,0-1.86,1.72,7.89,7.89,0,0,0-.88,2.32,21.51,21.51,0,0,0-.27,2.63l0,.35a1.93,1.93,0,0,0,.46,1.4l-.07.25c-.11.38-.22.75-.29,1.12a6.06,6.06,0,0,0-.1.71,4.68,4.68,0,0,1-.11.75c-.19.75-.4,1.49-.61,2.23-.14.52-.29,1-.43,1.56s-.26,1.06-.37,1.64c-.06.34-.15.68-.23,1a7.06,7.06,0,0,0-.32,2.68l-2.35.77,0,0c-.34-.64-.8-1.65-1.55-1.83a2.94,2.94,0,0,0-2.44.47,1.37,1.37,0,0,0-.14,1.36,1.27,1.27,0,0,0,.45,1.5c.23.22.49.42.7.59l.06,0c0,.11,0,.21-.07.31a3.78,3.78,0,0,0-.14,1.15c0,.49,0,1,0,1.48a13.3,13.3,0,0,0,.16,2.42,10.7,10.7,0,0,0,.89,3,14.51,14.51,0,0,0,1,1.61c.24.34.48.69.7,1.05a19.93,19.93,0,0,0,4.43,5,7.87,7.87,0,0,0,1.59,1,3.17,3.17,0,0,0-1.37,1.13,7,7,0,0,0-.66,1.23,3.46,3.46,0,0,1-.37.67.7.7,0,0,0-.32.4c-.08.34-.14.67-.21,1-.13.63-.26,1.29-.45,1.91-.14.45-.24.92-.34,1.38,0,.2-.09.39-.13.59l0,.09a1.7,1.7,0,0,0-.06.35c0,.71-.06,1.43-.09,2.14l0,.77c0,.81-.06,1.62-.06,2.43a1.6,1.6,0,0,0,.94,1.34,1.5,1.5,0,0,0,1.57,0,12.54,12.54,0,0,0,1.64-1.35l.23-.21.19.21a2.7,2.7,0,0,0,1,.81,1.91,1.91,0,0,0,.85.07,1.37,1.37,0,0,0,.3.57,1.34,1.34,0,0,0,1,.48h1.48a3.27,3.27,0,0,0,2.93-2c.22-.45.4-.93.57-1.39s.25-.69.4-1,.11-.23.27-.2a3.82,3.82,0,0,0,1.39,0l.24,0c1.19-.16,2.58-.34,4-.57.88-.15,1.76-.32,2.66-.49l.71-.13v1.12a2.2,2.2,0,0,0,.86,1.72,1.41,1.41,0,0,0,1,.26c.13,0,.23-.11.37-.08s.27.23.33.41a2.33,2.33,0,0,0,2,1.52,2.32,2.32,0,0,1,.93.3,2.67,2.67,0,0,0,3.2,0,1.35,1.35,0,0,0,.31-.54.85.85,0,0,1,.09-.22l.35-.61a9.75,9.75,0,0,0,.7-1.32,7.26,7.26,0,0,0,.34-1.16A7.79,7.79,0,0,1,170,149a4.72,4.72,0,0,1,.41-.85l.16-.3c.09-.16.19-.31.29-.47a2.57,2.57,0,0,0,.55-1.24c0-.37,0-.37.54-.37h4.26a.38.38,0,0,1,0,.12c0,1.06.13,2.11.21,2.9a1.87,1.87,0,0,0,1.49,1.38,1.74,1.74,0,0,0,1.74-.9.41.41,0,0,1,.05-.09,2.31,2.31,0,0,0,1,1,3,3,0,0,0,2.37.1l.28-.11c.51-.21.7-.26,1,.07a.81.81,0,0,0,.57.22l.2,0a.38.38,0,0,0,.43-.27l.51-1.82a2.23,2.23,0,0,0,1.4.86,1,1,0,0,0,.87-.24l.1-.11a5.23,5.23,0,0,0,1.19-1.75,27.34,27.34,0,0,0,1-4.32,8.89,8.89,0,0,0-2-6.79,2.36,2.36,0,0,0,1.12-.53c.23-.22.45-.47.66-.71a7.19,7.19,0,0,1,.52-.57,4.63,4.63,0,0,0,1.12-2.13A4,4,0,0,0,192.06,130.54ZM186,144.45l-.15-.06a.42.42,0,0,0-.29,0,.38.38,0,0,0-.22.19l-.08.15a2.19,2.19,0,0,0-.2.46,4,4,0,0,0-.08.5,2.2,2.2,0,0,1-.05.37c0,.13-.07.25-.11.37a3.81,3.81,0,0,0-.13.45c-.11.53-.22,1.06-.32,1.62v.05a.91.91,0,0,0-1.25,0H183a.49.49,0,0,1-.17,0,1.27,1.27,0,0,0-.59.08,1.35,1.35,0,0,1-1,.19c-.2-.09-.37-.35-.53-.79a.88.88,0,0,0-.05-.15l-.06-.15a1.27,1.27,0,0,0-.55-.84,1.16,1.16,0,0,0-.94-.06.38.38,0,0,0-.27.29,2,2,0,0,1-.69,1.15l-.08.07c-.07.08-.19.19-.17.24a.91.91,0,0,1-.09-.38c0-.52,0-1,0-1.57,0-.33,0-.66,0-1a1.35,1.35,0,0,0-1.06-1.32,5.43,5.43,0,0,0-2-.15,19.92,19.92,0,0,1-3.05-.11,2.28,2.28,0,0,0-1.51.44c-.27.22-.28.54-.39.85a5.14,5.14,0,0,1-.53,1.11,2.47,2.47,0,0,0-.41.67c-.05.17-.12.33-.17.5-.14.42-.27.82-.39,1.23-.07.23-.12.46-.17.7a7.74,7.74,0,0,1-.29,1,4.91,4.91,0,0,1-.5.85L167,152a.86.86,0,0,1-.62.5,2.06,2.06,0,0,1-.7,0,5.68,5.68,0,0,1-1.92-.7,2.49,2.49,0,0,1-.66-.45c-.19-.23-.27-.57-.45-.82a1.81,1.81,0,0,0-.93-.73,1.76,1.76,0,0,0-.79,0v-.2c0-.57,0-1.15,0-1.75a1.46,1.46,0,0,0-.51-1.15,1.29,1.29,0,0,0-1.08-.19,9,9,0,0,0-1.6.48,5.23,5.23,0,0,1-1.93.39,13.71,13.71,0,0,0-2,.26l-.95.16-.55.08c-.88.13-1.8.26-2.7.34a1,1,0,0,0-.87.64l-.17.45a5.13,5.13,0,0,1-.32.75,3.39,3.39,0,0,0-.3.82,1.89,1.89,0,0,1-.4.88l-.26.28c-.5.54-.81.84-1.42.65l-.23,0-.23,0h-.45c.07-.93.07-1.54-.29-1.94a1.27,1.27,0,0,0-1-.41.38.38,0,0,0-.37.25l-.36,1c-.29.05-.43-.06-.56-.39a1.82,1.82,0,0,0-.64-.79,1,1,0,0,0-1,0,4.83,4.83,0,0,0-.55.56c-.11.13-.22.26-.34.38a7.52,7.52,0,0,1-.62.5l-.25.18-.34.25,0,0a.57.57,0,0,1,0-.14c0-.25,0-.49,0-.74s0-.45,0-.68,0-.51,0-.77a19.27,19.27,0,0,1,.13-2.16,17.6,17.6,0,0,1,.39-1.89c.09-.35.17-.7.25-1s.07-.4.1-.6a3.49,3.49,0,0,1,.16-.83,8.91,8.91,0,0,1,.84-1.83,4.82,4.82,0,0,0,.27-.5,1.69,1.69,0,0,1,.69-.85,13.8,13.8,0,0,1,2.39-1.35,2.46,2.46,0,0,1,.93.07c.52.05,1,.08,1.56.15,1.38.2,2.75.43,4.13.66l1.91.32.72.12a12.64,12.64,0,0,0,1.76.25l.29,0a13.94,13.94,0,0,0,4.5-.19c.67-.17,1.33-.39,2-.61l.73-.24a.59.59,0,0,0,.29-.21l.41-.34c.33-.28.67-.56,1-.82a5.58,5.58,0,0,1,.58-.35l.34-.2a4.4,4.4,0,0,0,.45-.3l.42-.32.09-.08a1.29,1.29,0,0,0,.27-.23l.08-.08a2.81,2.81,0,0,0,.59-.41,2.25,2.25,0,0,1,.45-.33,8.75,8.75,0,0,0,1.47-1c.22-.18.45-.36.68-.52a1.73,1.73,0,0,1,.51-.2,10.79,10.79,0,0,0,3.57-1.88,1.7,1.7,0,0,1,1.45-.45c.95.19,1.92.31,2.86.42l.25,0a6.27,6.27,0,0,0,.75,0,4,4,0,0,1,.95.09l.17,0a40,40,0,0,1,4.54,1.46l.13,0c1,.43,2,.84,2.31,2a.85.85,0,0,0,.25.42,5.75,5.75,0,0,1,1.41,2.19,7.2,7.2,0,0,1,.6,3.17c-.06.56-.16,1.12-.28,1.76l-.06.36a4.75,4.75,0,0,1-.24,1c-.09.22-.16.45-.23.68a2.89,2.89,0,0,1-.59,1.25l-.13.15a3,3,0,0,1-.52.5,4.55,4.55,0,0,1-.32-1.63,2.09,2.09,0,0,0-.28-1A1,1,0,0,0,186,144.45Zm-51.21-15.72a4.54,4.54,0,0,1-.34-1.1c-.08-.38-.18-.77-.26-1.16a10,10,0,0,1-.25-2.89,3.17,3.17,0,0,0,0-.87s-.12-.93.67-1.14a3.48,3.48,0,0,0,1.27-.75,5.4,5.4,0,0,1,2.11-.91l.58-.16a1.08,1.08,0,0,0,.83-1.47,1,1,0,0,1,0-.11l0-.14.06-.28c0-.14.06-.28.08-.42l.09-.58a4.17,4.17,0,0,1,.43-1.58,1,1,0,0,0,.11-.59v-.16l0-.24c0-.4.06-.81.1-1.21a1.93,1.93,0,0,1,.08-.28l.11-.37c.14-.48.29-.95.43-1.42,0-.1.06-.21.09-.31a1.49,1.49,0,0,1,.19-.52c.44-.51.53-1.91.58-3.42v-.42a2.27,2.27,0,0,0-.15-1,.77.77,0,0,1-.06-.57,1,1,0,0,0,0-.52,1.62,1.62,0,0,1,0-.18q0-.33.12-.66c0-.28.1-.57.14-.85a.68.68,0,0,0,0-.32.33.33,0,0,0,0-.12c.11-.23.22-.47.32-.7a8.19,8.19,0,0,1,.82-1.56,1.84,1.84,0,0,1,.85-.46l.29-.12.05.05.53.58c.83.94,1.69,1.9,2.49,2.88a3.2,3.2,0,0,1,.42.87,3,3,0,0,0,.11.32,3.19,3.19,0,0,1,.13.44,2.28,2.28,0,0,0,.41,1,3,3,0,0,0,1.37.79,16.66,16.66,0,0,0,5.06.73,24.37,24.37,0,0,1,3.13.35c.74.11,1.48.25,2.21.38,1.18.22,2.4.45,3.62.59a9.7,9.7,0,0,0,3.51-.16l.11,0a16.33,16.33,0,0,0,2.49-.79,2.11,2.11,0,0,0,.82-.83c.08-.11.15-.22.23-.32a1.65,1.65,0,0,0,.41-1.1,1.21,1.21,0,0,1,.22-.42,2.51,2.51,0,0,0,.29-.51,5.24,5.24,0,0,0,.25-.92c0-.11,0-.21.08-.31l.1-.1a1.33,1.33,0,0,0,.5-.82,1.73,1.73,0,0,1,.52-.72c.09-.1.18-.19.26-.29a2.66,2.66,0,0,1,.24-.23,9,9,0,0,1,.13,1.14,8.64,8.64,0,0,1,0,.88,6.15,6.15,0,0,0,.05,1.48,7.35,7.35,0,0,0,.58,1.61c.1.23.21.45.29.67.24.58.46,1.16.69,1.75l.24.61c.28.73.56,1.45.83,2.18.1.28.21.56.32.84a19.51,19.51,0,0,1,.79,2.34,10.46,10.46,0,0,1,.15,2.49v.54a21.51,21.51,0,0,1-.21,3.22,48.26,48.26,0,0,1-1.16,4.77,4.87,4.87,0,0,1-.41.95,6.85,6.85,0,0,0-.43,1,4.85,4.85,0,0,1-1,1.58,12.13,12.13,0,0,1-2.15,2.38,16.79,16.79,0,0,1-2.93,1.64l-.13.07a22.41,22.41,0,0,0-3,1.78c-.67.45-1.32.92-2,1.4s-1.25.8-1.9,1.23a16.68,16.68,0,0,1-2.55,1.45,13,13,0,0,1-3,.43c-.56-.06-1.11-.09-1.67-.11s-1.13,0-1.69-.12c-.75-.09-1.5-.33-2.26-.45-.59-.1-1.19-.2-1.78-.28l-1.06-.15c-1.32-.2-2.68-.39-4-.46a7.08,7.08,0,0,1-4.71-2.25,15.47,15.47,0,0,1-3-3.51c-.27-.48-.57-.93-.87-1.36A14,14,0,0,1,134.77,128.73Z"/><path d="M139.15,127.58a1.89,1.89,0,0,0,.91,1.65,2.47,2.47,0,0,0,1.94.31,2,2,0,0,0,1.35-.89s0-.06.06-.1l.36.63a.84.84,0,0,0,.37.35l.29.13a3.31,3.31,0,0,0,.94.35,4.75,4.75,0,0,0,.81.07,2.72,2.72,0,0,0,2.47-1.32c.39-.64.74-1.31,1.12-2a5.34,5.34,0,0,0,.27-.7l.1-.28a.38.38,0,0,0-.07-.38.35.35,0,0,0-.36-.11,2.46,2.46,0,0,0-2,2.07,1.29,1.29,0,0,1-.13.19l-.3.41-.33.44a.48.48,0,0,0-.08.18,1.36,1.36,0,0,1-1,.18,1.32,1.32,0,0,1-.84-.7c-.2-.36-.36-.74-.55-1.17l-.28-.65a.35.35,0,0,0-.23-.2.38.38,0,0,0-.31,0l-.31.17a2.18,2.18,0,0,0-.71.5,5.13,5.13,0,0,0-.59,1l-.21.41a1.2,1.2,0,0,1-.73.12,4.25,4.25,0,0,1-.33-.78l0-.11a3.67,3.67,0,0,1,0-2.53.37.37,0,0,0-.43-.49l-.34,0c-.32,0-.64.06-.81.32a2.22,2.22,0,0,0-.34,1.31,3.62,3.62,0,0,0,.17.82A2.64,2.64,0,0,1,139.15,127.58Z"/><path d="M147.1,115.18a.76.76,0,0,0,.29.44l.13.13a.39.39,0,0,0,.38.12v.37a.37.37,0,0,0,.38.35h0a1.49,1.49,0,0,0,1.27-1.36c.06-.81-.22-.92-.33-1s-.08,0-.14-.22a1.89,1.89,0,0,0-.13-.31,1.26,1.26,0,0,0-1-.6,1,1,0,0,0-.73.32.88.88,0,0,0-.22.67v.31C147.05,114.69,147.06,114.93,147.1,115.18Z"/><path d="M162.2,117.59a.32.32,0,0,0,.19,0,.45.45,0,0,0,.33-.14.66.66,0,0,0,.22-.35c0-.11.05-.23.08-.34a3.93,3.93,0,0,0,.15-1.19,1.59,1.59,0,0,0-.71-1,.83.83,0,0,0-.72-.07l-.22,0a.39.39,0,0,0-.3.19A2.73,2.73,0,0,0,162.2,117.59Z"/><path d="M115.89,94.39c.8-.12,1.65-.15,2.44-.32,1,2.93-3,6.28-4.74,8l-.11.11a6,6,0,0,0-2.2,3.7,16.49,16.49,0,0,0,.15,3.62,2.47,2.47,0,0,0,.48,1,7.51,7.51,0,0,0-5.33,2l.18-.5.13-.4a6.64,6.64,0,0,0,.48-2c0-.27,0-.55,0-.82l0-.18a14.66,14.66,0,0,0,0-1.76c0-.55,0-1.09,0-1.64s0-1-.06-1.58a4.49,4.49,0,0,0-.09-.61,1.74,1.74,0,0,1,0-.7,9.23,9.23,0,0,0,.14-2.66c0-.38,0-.77,0-1.16,0-.7,0-1.4,0-2.11,0-.46,0-.93,0-1.4s0-.76,0-1.15,0-.83,0-1.25a2.23,2.23,0,0,0-.06-.47,1.06,1.06,0,0,1,0-.31c0-.23,0-.46,0-.69a7.33,7.33,0,0,0,0-1.48c-.07-.39-.54-.67-.68-.75a.87.87,0,0,0-.73-.14A14.3,14.3,0,0,0,103.29,90a15,15,0,0,0-1.52,1.14l-.33.27-.85-.16A15.2,15.2,0,0,0,98.53,91c-.79,0-1.6,0-2.38,0l-1.38,0c-.64,0-1.29,0-1.93,0-1.24,0-2.52-.08-3.78,0-1.1.07-2.19.24-3.25.4-.69.11-1.37.22-2,.3a24.35,24.35,0,0,0-8.43,2.54c-.58.3-1.14.64-1.68,1s-.87.54-1.28.77h0a1.67,1.67,0,0,0-.19,0c-.69-1.17-1.32-2.36-1.79-3.27a1.78,1.78,0,0,0-1.48-.91.88.88,0,0,0-.92.48,7.9,7.9,0,0,0-.74,2.09,10.68,10.68,0,0,0-.2,1.13,9.66,9.66,0,0,1-.21,1.12l-.3,1.24c-.14.64-.29,1.29-.49,1.93a4,4,0,0,0,0,1.85c0,.25.08.5.1.75,0,.07,0,.14.06.26-.08,1.29-.16,2.58-.26,3.87-.06.87-.14,1.74-.22,2.61l-.12,1.13c-.09.71-.17,1.45-.21,2.18,0,1,0,2,0,2.94v.78c0,.21,0,.42,0,.63s0,.34,0,.51c0,.46,0,.93,0,1.4a19.9,19.9,0,0,0,.13,3.08,12.79,12.79,0,0,0,.66,2.39,17.59,17.59,0,0,1,.52,1.75c.15.62.36,1.23.56,1.82.15.42.3.84.42,1.27s.17.71.24,1.07a9.17,9.17,0,0,0,.41,1.6A17.84,17.84,0,0,0,71.1,136,4.47,4.47,0,0,0,75,137.88h1l-1.11.75a1.19,1.19,0,0,0-.3.35,11.71,11.71,0,0,1-2,2.54c-.5.5-1,1-1.43,1.56a24.26,24.26,0,0,1-1.85,2,11,11,0,0,1-5,2.37,13.22,13.22,0,0,0-2.87,1,15.82,15.82,0,0,0-1.81,1.14c-.33.22-.66.45-1,.66a13.74,13.74,0,0,0-2.15,1.65,14.69,14.69,0,0,0-2.71,3.67,2.53,2.53,0,0,0-.26,2.3,2,2,0,0,0,1.37,1,1.45,1.45,0,0,0,.54,1.14,1.33,1.33,0,0,0,1.15,0c.7,1,1.39,1.47,3,.44.25-.16.51-.3.77-.45l.6-.34,3-1.78c1.46-.89,2.68-2.13,4.14-3,.35-.2.67-.45,1-.62a10.68,10.68,0,0,0,1-.59c.19-.13.66-.51.9-.29s-.37.55-.53.69a4.12,4.12,0,0,1-.66.66,3.44,3.44,0,0,0-.78.47,5.64,5.64,0,0,1-1,.86c-.57.38-1.09.77-1.69,1.11a8.49,8.49,0,0,0-1.37,1,4.81,4.81,0,0,0-.81.75,3.49,3.49,0,0,0-.45,1.19c-.12.44-.24.87-.39,1.29a1.68,1.68,0,0,0,.16,1.62,1.58,1.58,0,0,0,1.53.47,3.78,3.78,0,0,0,.94-.28l.18-.06a.8.8,0,0,1,.13.13.65.65,0,0,1,.11.33,8.26,8.26,0,0,1-.25,1l-.05.18a1.2,1.2,0,0,0,.68,1.65,2,2,0,0,0,.55.08,2.25,2.25,0,0,0,1.1-.28c1.42-.81,2.81-1.71,4.16-2.58l.18-.12c.8-.51,1.59-1,2.39-1.56s1.75-1.16,2.64-1.73c.47-.3,1-.6,1.45-.89.73-.43,1.48-.87,2.19-1.37s1.32-1,2-1.5,1.09-.89,1.66-1.3l.53-.39c1.47-1.07,3-2.18,4.55-3.12s3.46-2,5.17-2.85l1.42-.75c.64-.34,2.08-1.18,2.38-1.33C99,147,98,148,97.78,148.19s-.58.67-.89,1a6.24,6.24,0,0,0-.66.82,3.38,3.38,0,0,1-1,1c-.55.33-1.18.77-1.16,1.33a1.17,1.17,0,0,0,.64,1,2.22,2.22,0,0,0,1,.15h.37s.06,0,0,0a2.36,2.36,0,0,0-.36,1.22c0,.4.43.6.85.82l.3.16a.78.78,0,0,0,0,.14,2.24,2.24,0,0,0,.43.82,1.51,1.51,0,0,0,2.21-.11c1.34-1,3.1-2.39,4.84-3.84.73-.61,1.41-1.29,2.06-2l.29-.28c-.13.27-.26.54-.38.82l-.12.3a4.63,4.63,0,0,1-.48.94,5,5,0,0,0-.62,1.47l0,.14a1.88,1.88,0,0,0,.31,1.81,1.53,1.53,0,0,0,1.49.39c.66-.14.83-.69,1.46-1,.2-.11,1.18-.82,1.39-.93a1.2,1.2,0,0,0,1,.33l.26,0c.28,0,.21.94.54,1.06s.4.15.6.2a.89.89,0,0,0,.79-.19c.23-.25.48-.49.73-.73a13.1,13.1,0,0,0,1.8-2.06,20.16,20.16,0,0,0,2.44-6.41c.52-2.21.89-4.49,1.25-6.69l.09-.52c.15-1,.28-1.93.42-2.9a54.76,54.76,0,0,1,1-5.88,14.73,14.73,0,0,0,0-7.43c-.24-.94-.42-1.92-.59-2.87-.11-.63-.22-1.26-.35-1.88a17.12,17.12,0,0,1-.24-1.75,22.68,22.68,0,0,0-.64-3,8,8,0,0,1,.28-3.28c.56-2.49.14-5.06,1.32-7.41a9.13,9.13,0,0,0,.45-1c.09-.26.19-.52.29-.78a23.09,23.09,0,0,0,.92-3.82,18.81,18.81,0,0,0,.79-3.63,6.49,6.49,0,0,0-.24-1.92,11,11,0,0,1-.46-3.46,12.29,12.29,0,0,0-.83-3.68l0-.17a13.09,13.09,0,0,0-.76-1.7l-.26-.53a.8.8,0,0,0-.59-.4c-.24,0-.48-.06-.72-.1a7.27,7.27,0,0,0-1.92-.11,7.53,7.53,0,0,0-4.79,2.61l-.11.12a4.42,4.42,0,0,0-1.47,2.85c0,1.18,0,2.35,0,3.53,0,1-.31,2.48.49,3.17C112.42,94.88,114.64,94.57,115.89,94.39ZM98.74,147.13h0ZM72,134.72a13.3,13.3,0,0,1-2.25-4.81c-.26-1.08-.61-2.14-.95-3.17-.28-.85-.57-1.73-.81-2.6a18.64,18.64,0,0,1-.9-5.82c0-.89,0-1.78,0-2.65,0-.6,0-1.2,0-1.81s.07-1.51.14-2.26l0-.51c.06-.71.14-1.43.21-2.14a43.82,43.82,0,0,0,.31-7.18,10.68,10.68,0,0,1,.34-2.86c.09-.45.18-.91.25-1.36l0-.16c0-.15,0-.31.08-.47l.23-1c.14-.58.28-1.17.41-1.75a.73.73,0,0,0,0-.39l.1-.06.3.52c.42.73.86,1.49,1.32,2.22a3.67,3.67,0,0,0,1.06,1,1,1,0,0,0,.93.2.75.75,0,0,0,.44-.54l.06,0,.81-.41,2.31-1.13,1.07-.52a18.85,18.85,0,0,1,2.81-1.23,15.75,15.75,0,0,1,2.67-.51c.41,0,.83-.1,1.24-.17l1-.17c.71-.13,1.45-.26,2.17-.34,1.25-.14,2.51-.22,3.75-.25h.68c2.1-.06,4.27-.11,6.38,0h.54a2.81,2.81,0,0,1,2,.51c.67.58,1.45.45,2.31-.39a12.09,12.09,0,0,1,1.59-1.24l.27-.19a8.14,8.14,0,0,1,.74-.42v2.23c0,2.09,0,4.11,0,6.12,0,1,0,2,0,3a39.52,39.52,0,0,1-.1,5.36c0,.32,0,.62,0,.91a5.13,5.13,0,0,1,0,1.49,18.9,18.9,0,0,1-.76,2.19c-.15.4-.31.8-.45,1.21a2.84,2.84,0,0,0-.23,1.23c.06.43-.14.68-.5,1.09l-.06.08c-.2.23-.39.47-.59.71a11,11,0,0,1-1.28,1.43,5.05,5.05,0,0,0-1.24,2l0,0a1.33,1.33,0,0,0-.16.12l-.21.19a2.34,2.34,0,0,0-.56.61,13.79,13.79,0,0,1-2.22,3,32,32,0,0,1-2.65,2.45,2.54,2.54,0,0,1-.88.38,5.45,5.45,0,0,0-.61.2l-1.63.7-.36.17a.66.66,0,0,0-.22.15,18.58,18.58,0,0,0-4.75,3.72,1.42,1.42,0,0,1-.21.06,1.26,1.26,0,0,0-.5.18c-.35.23-.68.47-1,.72-.51.37-1,.76-1.59,1.08a15.64,15.64,0,0,1-2.49,1.08A7.51,7.51,0,0,0,78,136.07c-.24.2-.48.4-.72.58l-.48,0c-.34,0-.69-.07-1-.07l-.39,0C74.05,136.68,73,136.12,72,134.72Zm47.09-4.14-.22.87a11.43,11.43,0,0,0-.5,3.34,4.12,4.12,0,0,1-.12,1c0,.21-.09.43-.11.65s0,.3,0,.44a2.82,2.82,0,0,1,0,.42l-.44,2.29c-.09.47-.18.93-.26,1.39s-.1.71-.14,1.06l0,.41c0,.21,0,.43-.07.64a9,9,0,0,1-.18,1.31c-.16.63-.37,1.27-.58,1.89l-.34,1.09c-.06.19-.1.39-.15.59a3.74,3.74,0,0,1-.23.8c-.14.33-.29.67-.43,1a10.37,10.37,0,0,1-2.87,4.48l-.08,0-.16-.89c-.32-.24-.67.27-.93,0a.83.83,0,0,1-.09-.21l0-.15a1.1,1.1,0,0,0-.8-.82,1.09,1.09,0,0,0-1,.4c-.17.19-.33.38-.49.58a6.59,6.59,0,0,1-.65.72,7.89,7.89,0,0,1-1,.72,1.57,1.57,0,0,1,.13-.4l.47-1c.83-1.77,1-3.68,2.11-5.3a8.63,8.63,0,0,0,.92-1.79c.12-.3.41-.8.25-1.14s0-.46-.31-.6-.57.11-.89.45-.73.76-1.09,1.15l-1.24,1.31-.93.95c-.5.51-1,1-1.48,1.54a22.2,22.2,0,0,1-3.42,3c-.51.37-1,.79-1.46,1.19-.28.25-.92.77-1.21,1s-.36.26-.55.39c-.07-.4-.42-.7-.93-1,0-.09.22-.38.24-.46a2.13,2.13,0,0,0,0-1.73c-.24-.3-.72-.15-1.27-.11l.08-.1a24.54,24.54,0,0,1,1.65-1.82c.89-.93,1.82-1.83,2.74-2.73l1.53-1.5a1.74,1.74,0,0,0,.46-.66.9.9,0,0,0-.27-1,1.11,1.11,0,0,0-1.55,0,4.54,4.54,0,0,1-1.27.48c-.24.06-.48.13-.71.21a2.56,2.56,0,0,0-.48.22l-.12.06-.52.26a10.56,10.56,0,0,0-1.24.66,9.8,9.8,0,0,1-1.38.67,6,6,0,0,0-2.3,1.39,1.17,1.17,0,0,1-.36.14l-.26.08a12,12,0,0,0-3.14,1.85,18.91,18.91,0,0,1-1.69,1.11l-1.12.7c-.7.47-1.38,1-2,1.46l-.9.65c-.83.61-1.67,1.21-2.48,1.85a14.68,14.68,0,0,1-1.84,1.15,13.47,13.47,0,0,0-2,1.26,8.12,8.12,0,0,0-.69.61,6.9,6.9,0,0,1-.78.68c-.41.3-.86.56-1.3.82l-.7.42-1.07.67c-.69.43-1.37.87-2.07,1.28a6.64,6.64,0,0,1-.89.4l-.5.2a1.75,1.75,0,0,0-.41.24l-.72.61c.08-.18.15-.37.21-.55a3.73,3.73,0,0,0,.18-1.26,2.45,2.45,0,0,0-.35-1.29,1.68,1.68,0,0,0-1.12-.68.64.64,0,0,0-.2,0,5.41,5.41,0,0,0-1.11.68c-.15.11-.3.22-.45.31,0-.17.09-.35.13-.53a3.39,3.39,0,0,1,1.11-2.21c.36-.28.74-.55,1.11-.81.61-.44,1.22-.87,1.81-1.34.76-.62,1.5-1.26,2.25-1.9l1.2-1,.85-.7c.43-.35.87-.71,1.29-1.08l.13-.1a.9.9,0,0,0,.33-1.35,1.45,1.45,0,0,0-1.15-.61h0a1,1,0,0,0-.84.43,1.47,1.47,0,0,1-.93.52,2.77,2.77,0,0,0-1,.43,10.43,10.43,0,0,1-1.67,1c-.26.13-.53.26-.78.4l-.7.36c-.51.27-1,.54-1.53.85a9.63,9.63,0,0,0-1,.69c-.25.19-.49.38-.74.55a2.68,2.68,0,0,1-.48.23,4.23,4.23,0,0,0-.57.27c-.45.28-.89.58-1.34.87l-1.22.8c-.27.17-.56.32-.84.47l-.45.24-1.67.91-.34.18-.4-1a1.25,1.25,0,0,0,.27-1.08.81.81,0,0,0-.63-.5,1.54,1.54,0,0,0-1.39.32c-.27.33-.54.34-1,.27a1.84,1.84,0,0,1,.49-1.13c.08-.11.16-.22.22-.32a13.55,13.55,0,0,1,3.85-4.08,20.91,20.91,0,0,1,5.84-2.85,10.41,10.41,0,0,0,5.06-2.49c.51-.55,1-1.08,1.56-1.61,1-1,2.07-2.11,3-3.22A40.87,40.87,0,0,1,80,136.79a3.24,3.24,0,0,1,.64-.36l.38-.19,1-.55c.85-.46,1.71-.93,2.55-1.41,1.16-.67,2.35-1.36,3.49-2.13a5.21,5.21,0,0,0,.84-.78,4.41,4.41,0,0,1,.8-.72c1.11-.69,2.3-1.31,3.45-1.92l1.35-.71a11.81,11.81,0,0,0,3.67-2.56c.48-.57.91-1.19,1.32-1.79.24-.35.47-.69.72-1,.59-.8,1.21-1.59,1.83-2.38.23-.28.45-.57.67-.87a17.88,17.88,0,0,1,1.72-2.06c.48-.47.94-1,1.38-1.48a12.33,12.33,0,0,1,3.29-2.93,6.08,6.08,0,0,1,2.3-.69,20.72,20.72,0,0,1,3.62.08,3,3,0,0,1,2.7,2.56c.12.76.23,1.52.34,2.28.15,1.07.3,2.18.5,3.26a14.58,14.58,0,0,0,.42,1.64,13.64,13.64,0,0,1,.42,1.64,10.68,10.68,0,0,1,.1,1.62c0,.44,0,.87.06,1.3A11.79,11.79,0,0,1,119.08,130.58ZM118,107.85c-.14,1.15-.28,2.3-.43,3.44a3,3,0,0,1-.16.58.31.31,0,0,1-.09-.07,6.16,6.16,0,0,0-3-1.17c-1-.14-1.31-.49-1.38-1.33a14.71,14.71,0,0,1,0-3.44,3.82,3.82,0,0,1,1.34-2l.35-.35.8-.79c.68-.68,1.39-1.39,2-2.14a21.17,21.17,0,0,0,1.81-2.7c.63-1.07,1.28-3,.77-4.2s-2-1.44-3.07-1.39a9.2,9.2,0,0,0-1.66.11,5.63,5.63,0,0,1-2,.47c-1.24-.11-1.12-1.44-1-2.36a38.77,38.77,0,0,1,.43-4.32A1,1,0,0,1,113,86a1.93,1.93,0,0,0,.27-.31,5.42,5.42,0,0,1,5.93-2.31l.36,1.07a30.65,30.65,0,0,1,.94,3.18,10.86,10.86,0,0,1,.13,2.36c0,1.44.64,2.69.72,4.09a6.82,6.82,0,0,1-.23,2.43,38.29,38.29,0,0,1-1.56,5.09,14.05,14.05,0,0,0-1.29,4.19Z"/><path d="M75.32,120.71a3.34,3.34,0,0,0,3.29,1.48A2.66,2.66,0,0,0,81,120.32l.3.42a16.93,16.93,0,0,0,1.45,1.85,3.67,3.67,0,0,0,2.55,1,2.54,2.54,0,0,0,1.37-.35,10.46,10.46,0,0,0,1.22-1l.48-.41.25-.2-.88-1.46-.33.23-.33.21a6.14,6.14,0,0,0-.75.54A2.1,2.1,0,0,1,83,120.9a3.54,3.54,0,0,1-.66-2.2,2.55,2.55,0,0,0-.42-1.19.66.66,0,0,0-.54-.23,1,1,0,0,0-.74.26c-.32.42-.6.87-.87,1.3-.13.2-.25.4-.38.59a1.72,1.72,0,0,1-1.43.93,1.37,1.37,0,0,1-1.14-.75c-.19-.33-.42-.7-.82-.78a.9.9,0,0,0-.75.22c-.72.55-.26,1.21,0,1.53Z"/><path d="M86.63,110.86a1.44,1.44,0,0,0,.6.13,2.06,2.06,0,0,0,1.62-1l0,0c.64-1-.46-2-.94-2.36a.84.84,0,0,0-.88-.16A2,2,0,0,0,86,108.81C85.88,109.37,85.89,110.52,86.63,110.86Z"/><path d="M75.94,111.94a1.29,1.29,0,0,0,.81-.26.5.5,0,0,0,.63-.21.66.66,0,0,0,.15-.54l-.07-.23a4.43,4.43,0,0,0-.27-.8l-.08,0a1.15,1.15,0,0,0-.66-.77.64.64,0,0,0-.42,0,1.56,1.56,0,0,0-.7-.09,1.31,1.31,0,0,0-.74.34,2.7,2.7,0,0,0-.33.22l-.21.16.13.45a1.37,1.37,0,0,0,.17.45l.06.15-.06,0a1.07,1.07,0,0,0,.13.21.68.68,0,0,0,.12.12,1.62,1.62,0,0,0,1.25.75Z"/><path d="M338.78,102a1.4,1.4,0,0,0-.17-1.35,2.94,2.94,0,0,0-2.44-.41c-.76.19-1.2,1.22-1.51,1.85l0,.06-2.37-.71a7.26,7.26,0,0,0-.39-2.68c-.08-.34-.17-.68-.25-1-.11-.57-.26-1.12-.41-1.63s-.3-1-.46-1.55c-.23-.74-.45-1.47-.66-2.22a4.28,4.28,0,0,1-.13-.73,5.52,5.52,0,0,0-.11-.71,10.12,10.12,0,0,0-.32-1.11l-.07-.25a2,2,0,0,0,.42-1.41l0-.35a24.05,24.05,0,0,0-.32-2.64,8.33,8.33,0,0,0-.94-2.29,4.12,4.12,0,0,0-1.9-1.68,2.11,2.11,0,0,0-2.63.6c-.29.36-.59.7-.91,1a21.92,21.92,0,0,0-1.43,1.71l-.17.25a5.34,5.34,0,0,0-1.22,2.74.63.63,0,0,1-.48.6,12.51,12.51,0,0,1-4,.72l-.2,0c-1.1.08-2.24.23-3.38.42-.78.13-1.56.29-2.34.44-1.25.25-2.54.51-3.82.66a5.52,5.52,0,0,1-3.23-.21,4.45,4.45,0,0,0-1.33-.36c-.77-.12-1.07-.7-1.43-1.39l-.08-.14a9.53,9.53,0,0,1-.48-1.17,8.31,8.31,0,0,0-.4-1l0-.11a5.18,5.18,0,0,0-1.8-2.42,1.89,1.89,0,0,1-.58-.64,1,1,0,0,0-1-.55,1.16,1.16,0,0,0-1,.64,5.42,5.42,0,0,0-.44,1.6,15.68,15.68,0,0,0-.13,2.76,2.87,2.87,0,0,1-.19,1.37c-.24.58-.46,1.15-.67,1.74l-.24.62c-.14.38-.29.75-.43,1.11a23.7,23.7,0,0,0-1,2.64c-.12.47-.28.92-.44,1.38a11.37,11.37,0,0,0-.69,2.48,20.84,20.84,0,0,0,.56,7,28.4,28.4,0,0,0,1.43,4.9,9.7,9.7,0,0,0,.66,1.23c.09.15.21.3.31.45-.26,0-.53,0-.79,0a1.88,1.88,0,0,0-1.35.43,1.32,1.32,0,0,1-.2.12,3,3,0,0,0-.89.81l0,0c-.11.12-.2.24-.31.34-.57.54-1.15,1.07-1.72,1.57-.29.25-.6.49-.89.73l-.51.41a.37.37,0,0,0-.09.09l-.4.31c-.32.24-.65.48-1,.74a5.89,5.89,0,0,0-.45.42,3.69,3.69,0,0,1-.35.34c-.35.29-.7.58-1.06.86l0,0c-.57.46-1.17.94-1.73,1.43a24,24,0,0,0-1.92,2l-.35.33,0,0a3.62,3.62,0,0,0-.8.94,2.12,2.12,0,0,1-.53.46,4,4,0,0,0-.68.57,14.89,14.89,0,0,0-2.31,3.6c0,.11-.09.22-.15.36a2.47,2.47,0,0,1-.31.63c-.27.37-.57.73-.86,1.08s-.59.72-.87,1.09c-.69.93-1.33,1.91-1.75,2.56a1.72,1.72,0,0,0-.28,1,21.87,21.87,0,0,1-.29,4.55c-.15,1-.3,2.11-.41,3.17,0,.21,0,.42,0,.6l-1.1-.81a1.47,1.47,0,0,0-.15-.39c-.12-.2-.26-.39-.4-.6a3.46,3.46,0,0,1-.55-1,10,10,0,0,1-.23-1.87c0-.35,0-.67-.08-1s-.07-.62-.12-.93c-.06-.47-.14-1-.16-1.48s0-1,0-1.41v0c0-.52,0-1.06,0-1.6a3.37,3.37,0,0,1,2.17-3,10.44,10.44,0,0,0,1.58-.64l.1,0a1,1,0,0,0,.37-1.74l-.35-.42-.48.3-.05,0a6.47,6.47,0,0,1-.66-.11,5,5,0,0,0-2.16-.06,7.36,7.36,0,0,1-1,.09,4.2,4.2,0,0,0-2.39.51,7.48,7.48,0,0,0-2.28,5.57c.05.41.09.82.15,1.24a41.51,41.51,0,0,1,.36,4.61,16.73,16.73,0,0,0,.67,4,16.34,16.34,0,0,1,.64,3.8,2.18,2.18,0,0,0,1.28,2,12.24,12.24,0,0,0,5.72,1.38h.44a2,2,0,0,1,.67,0c.42.17.81.38,1.23.6s.74.4,1.12.57a19.93,19.93,0,0,0,2.32.83l.74.24a25.7,25.7,0,0,0,2.87.79c1.84.36,3.69.61,5.59.86a22.21,22.21,0,0,0,2.51.14h1.21a10.77,10.77,0,0,0,3.11-.21c.29-.08.6-.14.9-.2h.07a8.15,8.15,0,0,0,1.79-.47c.47-.2.66-.14,1.18.22l.66.48,0,0a19.87,19.87,0,0,0,2.94,1.85,12.31,12.31,0,0,0,5.42,1.12h1.18c.68,0,1.38,0,2.06,0l.48,0a1.75,1.75,0,0,0,1.16-.31,1.12,1.12,0,0,0,.38-.78l.76.19a1.69,1.69,0,0,0,1.93-.72l.16-.39c.18-.43.37-.87.59-1.28a2.64,2.64,0,0,0-.6-3.23,6.42,6.42,0,0,0-1-.65l-.46-.26c-.52-.3-1.05-.6-1.61-.86a16,16,0,0,1-2.68-1.52c-.46-.35-1-.68-1.48-1l-.7-.48-.43-.29a5,5,0,0,1-.8-.58l-.28-.28a18.62,18.62,0,0,0-3.44-2.91l-.08-.06a.64.64,0,0,1,.16-.1,2.68,2.68,0,0,0,.64-.4,8.34,8.34,0,0,1,2-1.24c.31-.15.65-.33,1-.51s.94-.56,1.39-.84l.11-.06.9-.55a.52.52,0,0,1,.2-.06l.69-.13c.66-.12,1.35-.25,2-.35.49-.08,1-.14,1.48-.2v3.72c0,.19,0,.38,0,.57v0a10.22,10.22,0,0,0,0,1.35c.15,1.51.31,2.77.54,4a3.12,3.12,0,0,0,1.89,2.42,1.86,1.86,0,0,0,2.31-.43,6.25,6.25,0,0,0,.43-.66,1.74,1.74,0,0,0,1.55-.25l.14-.1,0,0c1.16-.18,1.46-.35,1.51-1.5.07-1.54.15-3.28.1-5,0-1.07-.11-2.18-.18-3.16s-.12-1.64-.15-2.42l0-.28A2.88,2.88,0,0,1,320,134a3.78,3.78,0,0,0,.47-1.63c.06-.63.06-1.28.07-1.86,0-.26,0-.51,0-.77l0-1.38c0-.43,0-1,0-1.5,0-1.25.05-2.66.08-3.65v-.16c1.19-.22,2.39-.45,3.58-.65.4-.07.8-.11,1.21-.15l.34,0a2.64,2.64,0,0,1,.92-.09c.85.19,3.71-1.34,4.22-1.78a19.94,19.94,0,0,0,4.32-5.12c.2-.36.44-.71.67-1.06a14.68,14.68,0,0,0,1-1.62,10.71,10.71,0,0,0,.83-3,12.42,12.42,0,0,0,.1-2.42,14.81,14.81,0,0,1,0-1.49,3.72,3.72,0,0,0-.18-1.14c0-.1-.05-.2-.07-.3l.05,0a7.55,7.55,0,0,0,.69-.61A1.26,1.26,0,0,0,338.78,102Zm-69.2,46.42a19.6,19.6,0,0,1-2.14-.53,4,4,0,0,1-1.07-.4c-.84-.57-1.15-2.86-1.3-3.84a35.31,35.31,0,0,1-.67-3.67c0-1.11,0-2.23-.09-3.35v-.06c0-.78-.08-1.59-.08-2.38a8.07,8.07,0,0,1,.64-3.71,6,6,0,0,1,1.73-1.79,1.29,1.29,0,0,1,.57-.1c.27,0,.57,0,.87.07a4.7,4.7,0,0,0-2,2.51,8.15,8.15,0,0,0-.36,2.53v.21a19.86,19.86,0,0,0,.07,3.07c.05.49.08,1,.11,1.48a12.7,12.7,0,0,0,.62,3.81,4.91,4.91,0,0,0,1.86,2.45c.65.44,1.27.93,1.76,1.32a.25.25,0,0,1,0,.12,5.23,5.23,0,0,1,0,.56v0a6.46,6.46,0,0,0,0,.88,3.2,3.2,0,0,0,.23.81l0,.07A6.8,6.8,0,0,1,269.58,148.45Zm35.56,7.24Zm13.64-27.57c0,.51,0,1,0,1.54,0,.68,0,1.37,0,2.06v.14a2,2,0,0,1-.46,1.53.87.87,0,0,0-.23.64v.65c0,.61,0,1.31,0,2,0,.38.07.76.12,1.14a9.84,9.84,0,0,1,.12,1.28c0,1.91,0,3.84,0,5.55v1.56a.19.19,0,0,1,0,.1s-.07,0-.16,0l-.34-.12c-.21.11-.24.44-.42.5s-.36-.25-.5-.33a.74.74,0,0,0-.86.11,3.57,3.57,0,0,0-.69.76c-.16.24-.2.72-.49.81a1.43,1.43,0,0,1-.85-.47l-.06-.25a16,16,0,0,1-.49-2.8c-.08-1.3-.09-2.63-.11-3.91v-.23l0-2v-.18a8.21,8.21,0,0,0-.16-1.77,1.09,1.09,0,0,0-.57-.88,1.4,1.4,0,0,0-1.12.1,1,1,0,0,0-.24,0l-.3,0-.78.11a14.16,14.16,0,0,0-4.95,1.25c-.94.49-2,1-3,1.62-.2.12-.38.25-.56.38l-.31.23a5.21,5.21,0,0,0-.52.45,2.66,2.66,0,0,1-.65.53,1.59,1.59,0,0,0-1,1.2,1.62,1.62,0,0,0,.62,1.48,9.87,9.87,0,0,0,.89.64,7.63,7.63,0,0,1,1,.77,29.66,29.66,0,0,0,4,3.45l.72.49a23.28,23.28,0,0,0,4,2.38,20.31,20.31,0,0,1,1.86,1l.25.14a1,1,0,0,1,.52.52.93.93,0,0,1-.16.69l-.26.4a2.61,2.61,0,0,0-.58,1.22c-.65-.05-1.24-.36-1.9-.1-.42.18-.86.48-.82,1-.46,0-.92,0-1.38,0l-.72,0h-1.15a5.56,5.56,0,0,0-.63,0H305a5.11,5.11,0,0,0-1.41-.25,4.7,4.7,0,0,1-.86-.11,6.7,6.7,0,0,1-1.32-.52,9.64,9.64,0,0,0-1.25-.51l-.09-.08-.88-.64-2.2-1.6c-.78-.56-1.95-.05-2.89.36a7.94,7.94,0,0,1-.86.34,8.67,8.67,0,0,1-3.4.16,16,16,0,0,0-2-.08,7.37,7.37,0,0,1-1.33,0,4.87,4.87,0,0,0-.55-.06h0a6.6,6.6,0,0,1-.81-.11l-.26-.07a5.2,5.2,0,0,0-2-.23l-.1,0-.17,0-.57-.12q-.82-.15-1.65-.33l-.52-.1a14.58,14.58,0,0,1-1.48-.36c-.78-.25-1.56-.56-2.32-.85l-1.3-.5c-.55-.2-1.07-.4-1.57-.64A1.35,1.35,0,0,1,273,149a1.54,1.54,0,0,0-.68-.51c-.35-.13-.4-.28-.41-.82v-.24a20.65,20.65,0,0,1,0-2.08c.08-1.33.2-2.68.32-4.05l.06-.72c.09-1,.2-2.09.3-3.16l0-.26c0-.2,0-.4,0-.58a2.44,2.44,0,0,1,.14-1,12.36,12.36,0,0,1,1.16-1.72l.55-.77.59-.81.09-.12a18.63,18.63,0,0,0,1.53-2.29,15.2,15.2,0,0,1,2.92-4.16c.4-.38.79-.79,1.16-1.18l0,0c.35-.37.75-.79,1.16-1.18.95-.89,2-1.79,2.85-2.58l1.65-1.47c.33-.3.66-.6,1-.88s.72-.57,1.06-.83l0,0c.41-.31.83-.63,1.23-1,.67-.56,1.3-1.15,1.83-1.66a6.17,6.17,0,0,1,3.08-.9l0,0a21.41,21.41,0,0,0,2.12,2.06,10.64,10.64,0,0,0,3.61,1.8,2,2,0,0,1,.52.2c.23.16.47.32.69.5a9.19,9.19,0,0,0,1.49,1,3.46,3.46,0,0,1,.47.31,2.11,2.11,0,0,0,.59.4l.08.08a.71.71,0,0,0,.28.22l.1.08c.13.11.27.21.41.31l.46.29c.12.07.23.14.34.19a3.82,3.82,0,0,1,.59.35c.36.25.7.52,1.05.8l.41.33a.82.82,0,0,0,.29.2l.74.22c.64.2,1.31.41,2,.56a14.19,14.19,0,0,0,4.5.1l.3,0a14.51,14.51,0,0,0,1.75-.29l.71-.14.68-.13,0,1.66C318.84,126.14,318.81,127.13,318.78,128.12Zm17.29-18.68c-.07.4-.16.79-.23,1.18a4,4,0,0,1-.32,1.1,11.87,11.87,0,0,1-.95,1.63c-.29.45-.58.9-.84,1.38a16,16,0,0,1-2.92,3.85,7,7,0,0,1-4.66,2.37c-1.14.09-2.28.25-3.38.44l-.65.1-1.06.17-1.77.32c-.75.15-1.5.3-2.25.39-.56.09-1.12.12-1.69.16s-1.11.08-1.66.15a6,6,0,0,1-3-.41,16.55,16.55,0,0,1-2.58-1.4c-.65-.42-1.29-.86-1.93-1.3s-1.32-.92-2-1.35a23.21,23.21,0,0,0-3.08-1.72l-.14-.06a16.92,16.92,0,0,1-3-1.58,10.14,10.14,0,0,1-2-2.07l-.23-.26a4.72,4.72,0,0,1-1-1.55,6.4,6.4,0,0,0-.46-1,5.69,5.69,0,0,1-.43-.95,46.46,46.46,0,0,1-1.26-4.73,23.22,23.22,0,0,1-.29-3.23v-.53a9.71,9.71,0,0,1,.09-2.5,19.92,19.92,0,0,1,.73-2.35c.11-.29.21-.57.31-.85.26-.74.52-1.46.79-2.2l.21-.62.65-1.75c.09-.23.18-.45.28-.68a7.61,7.61,0,0,0,.54-1.63,5.64,5.64,0,0,0,0-1.48,6.47,6.47,0,0,1,0-.88c0-.37.05-.75.1-1.14a1.84,1.84,0,0,1,.25.23c.09.09.17.19.27.28a1.81,1.81,0,0,1,.54.71,1.24,1.24,0,0,0,.52.81l.1.09c0,.1,0,.21.08.31a4.39,4.39,0,0,0,.27.92,3.11,3.11,0,0,0,.3.51,1.08,1.08,0,0,1,.23.41,1.63,1.63,0,0,0,.43,1.08,2.43,2.43,0,0,1,.24.32,2.16,2.16,0,0,0,.85.82,17.12,17.12,0,0,0,2.51.73l.1,0a9.42,9.42,0,0,0,3.51.08c1.22-.17,2.43-.41,3.61-.66.73-.16,1.46-.3,2.2-.44a24.26,24.26,0,0,1,3.12-.41,17.14,17.14,0,0,0,5.05-.85,3,3,0,0,0,1.34-.82,2.06,2.06,0,0,0,.39-1,3.74,3.74,0,0,1,.12-.45c0-.11.08-.22.11-.32a3.42,3.42,0,0,1,.39-.88c.78-1,1.62-2,2.43-2.93l.52-.6s0,0,0,0l.31.11a1.94,1.94,0,0,1,.85.44,7.87,7.87,0,0,1,.85,1.55c.11.23.22.46.34.69a.61.61,0,0,0,0,.12.54.54,0,0,0,0,.31,6.07,6.07,0,0,0,.16.85c0,.22.09.44.12.67a.59.59,0,0,1,0,.17,1,1,0,0,0,0,.52.87.87,0,0,1,0,.57,2.19,2.19,0,0,0-.14,1l0,.41c.09,1.51.21,2.91.67,3.42a1.41,1.41,0,0,1,.19.5,2.81,2.81,0,0,0,.1.31c.16.48.31.94.46,1.41l.12.37a1.17,1.17,0,0,1,.08.29c.05.39.09.79.13,1.19l0,.25v.15a1.12,1.12,0,0,0,.12.6,4.23,4.23,0,0,1,.47,1.57c0,.19.07.38.1.57l.09.42.07.28,0,.14a.93.93,0,0,1,0,.1,1.08,1.08,0,0,0,.86,1.45l.59.15a5.5,5.5,0,0,1,2.13.86,3.37,3.37,0,0,0,1.28.74c.8.19.7,1.1.7,1.11a3.57,3.57,0,0,0,0,.87A10,10,0,0,1,336.07,109.44Z"/><path d="M330.21,107.45l-.35,0a.38.38,0,0,0-.41.49,3.7,3.7,0,0,1,.05,2.54l0,.11a4.62,4.62,0,0,1-.3.79,1.19,1.19,0,0,1-.73-.11c-.08-.13-.15-.27-.23-.41a6.86,6.86,0,0,0-.6-1,2.23,2.23,0,0,0-.73-.49l-.32-.16a.39.39,0,0,0-.3,0,.37.37,0,0,0-.23.21l-.27.65a11.91,11.91,0,0,1-.52,1.18,1.36,1.36,0,0,1-.82.72,1.3,1.3,0,0,1-1-.16.4.4,0,0,0-.09-.17c-.11-.15-.22-.3-.34-.44l-.31-.4a.91.91,0,0,1-.13-.19,2.49,2.49,0,0,0-2-2,.38.38,0,0,0-.43.51l.11.28a4.09,4.09,0,0,0,.29.68c.39.73.75,1.39,1.16,2a2.71,2.71,0,0,0,2.49,1.27,6.22,6.22,0,0,0,.82-.09,3.61,3.61,0,0,0,.93-.37l.29-.14a.83.83,0,0,0,.36-.36l.34-.63.07.09a2,2,0,0,0,1.37.86,2.48,2.48,0,0,0,1.93-.35,1.91,1.91,0,0,0,.87-1.67,2.33,2.33,0,0,1,.13-.79,5.53,5.53,0,0,0,.15-.83,2.22,2.22,0,0,0-.37-1.3C330.85,107.49,330.53,107.47,330.21,107.45Z"/><path d="M320.78,99.34a.84.84,0,0,0,.46.53,1.05,1.05,0,0,0,.8,0,1.27,1.27,0,0,0,.7-1,1.21,1.21,0,0,0,0-.33c0-.19,0-.21.05-.26s.3-.28-.07-1a1.49,1.49,0,0,0-1.69-.77l0,0a.33.33,0,0,0-.19.18.36.36,0,0,0,0,.29l.12.35a.37.37,0,0,0-.3.25.77.77,0,0,1-.07.16.86.86,0,0,0-.1.53c.06.24.15.47.23.71Z"/><path d="M308.08,98.56c-.73.12-1.87.42-2,1.28a.15.15,0,0,0,0,.07c-.12.87.69,1.33,1.47,1.44A1.69,1.69,0,0,0,309,101c.36-.34.7-1.65.26-2A1.64,1.64,0,0,0,308.08,98.56Z"/></g></g></svg>