<svg xmlns="http://www.w3.org/2000/svg" viewBox="0 0 60.92 56.57"><g id="ecaad954-892a-4e80-a0d5-17579a262df5" data-name="Layer 2"><g id="b92d22cb-f639-4965-a5b3-8eb35f1aff5f" data-name="Шар 1"><path d="M60.87,32.77l0-.34a25.16,25.16,0,0,0-.29-2.76,1.76,1.76,0,0,0-.78-1.17,2.48,2.48,0,0,0-2.52.1,5.65,5.65,0,0,0-.51.34l-.24.17a2.3,2.3,0,0,0-1.18,1.8c0,.77,0,1.54,0,2.32,0,.2,0,.41,0,.61a6.44,6.44,0,0,0-.09,1.07,4.89,4.89,0,0,1,0,.54c0,.26-.1.87.16,1a.93.93,0,0,0,.75.13c.14-.05.24-.31.32-.42a1.22,1.22,0,0,0,.2-.59c.07-.48.06-1,.1-1.44.06-.68.06-1.36.12-2l0-.27a2.8,2.8,0,0,1,.2-1,2.87,2.87,0,0,1,1.22-1.17c.22-.11.36-.12.41-.09s.09.12.11.26c.11,1,.2,2,.25,3l0,.31a2.94,2.94,0,0,1-.07,1.21,4.91,4.91,0,0,1-2,2.45,1.18,1.18,0,0,0-.38.36l-.06-.11a2.24,2.24,0,0,0-.45-.71,13,13,0,0,0-4.47-2.45l-.18-.07a5.93,5.93,0,0,0-.92-.24,4.32,4.32,0,0,1-.86-.23,6.44,6.44,0,0,0-2.34-.4l-.38,0c-.62,0-1.25-.13-1.92-.22l-.93-.17.17-.21A15.32,15.32,0,0,0,46.53,29,27.92,27.92,0,0,0,47.85,24a20.93,20.93,0,0,0,.4-7,11.69,11.69,0,0,0-.74-2.46c-.17-.46-.34-.91-.48-1.37a23.64,23.64,0,0,0-1-2.62l-.46-1.09-.25-.62c-.23-.59-.46-1.16-.71-1.73a2.82,2.82,0,0,1-.22-1.37A16.08,16.08,0,0,0,44.19,3a5.78,5.78,0,0,0-.48-1.58,1.17,1.17,0,0,0-1-.62,1,1,0,0,0-1,.57A1.9,1.9,0,0,1,41.1,2a5.2,5.2,0,0,0-1.74,2.46l0,.11c-.15.33-.26.68-.38,1a8.38,8.38,0,0,1-.45,1.19l-.08.15c-.34.68-.63,1.27-1.4,1.41a4.54,4.54,0,0,0-1.32.39A5.65,5.65,0,0,1,32.47,9c-1.28-.13-2.58-.36-3.84-.58Q27.46,8.22,26.29,8c-1.15-.17-2.29-.29-3.39-.35h-.2a12.58,12.58,0,0,1-4-.63c-.33-.13-.46-.28-.48-.59a5.49,5.49,0,0,0-1.29-2.71l-.18-.24a17.12,17.12,0,0,0-1.47-1.69c-.32-.34-.63-.67-.93-1A2.1,2.1,0,0,0,11.72.25,4.12,4.12,0,0,0,9.86,2,7.89,7.89,0,0,0,9,4.29a21.67,21.67,0,0,0-.27,2.64l0,.35a2,2,0,0,0,.46,1.4l-.07.25a11.53,11.53,0,0,0-.29,1.12,5.52,5.52,0,0,0-.1.71,4.55,4.55,0,0,1-.11.74c-.19.75-.4,1.49-.61,2.23-.15.52-.29,1-.43,1.56s-.26,1.07-.37,1.64c-.06.34-.15.68-.23,1a7.32,7.32,0,0,0-.33,2.69l-2.35.77,0-.06c-.34-.63-.8-1.65-1.55-1.82A2.93,2.93,0,0,0,.25,20a1.38,1.38,0,0,0-.14,1.36,1.26,1.26,0,0,0,.45,1.5,8.79,8.79,0,0,0,.7.59l.06,0c0,.1-.05.2-.07.3a3.49,3.49,0,0,0-.14,1.15c0,.5,0,1,0,1.49a12.41,12.41,0,0,0,.16,2.41,10.67,10.67,0,0,0,.89,3,15.35,15.35,0,0,0,1,1.6c.24.35.48.69.69,1a20,20,0,0,0,4.44,5,8.1,8.1,0,0,0,1.58,1,3.25,3.25,0,0,0-1.36,1.14,6.68,6.68,0,0,0-.67,1.23,3.42,3.42,0,0,1-.36.67.67.67,0,0,0-.32.4c-.08.33-.15.67-.21,1-.13.64-.26,1.29-.45,1.92-.14.45-.24.91-.34,1.38,0,.19-.09.39-.13.58L6,49a1.15,1.15,0,0,0-.06.34c0,.72-.07,1.43-.09,2.15l0,.77c0,.8-.06,1.61-.06,2.42A1.61,1.61,0,0,0,6.74,56a1.57,1.57,0,0,0,1.58,0A12.66,12.66,0,0,0,10,54.64c.06,0,.16-.15.23-.2l.19.21a2.72,2.72,0,0,0,1,.81,1.91,1.91,0,0,0,.85.07,1.43,1.43,0,0,0,.3.57,1.32,1.32,0,0,0,1,.47H15a3.28,3.28,0,0,0,2.94-2,14.86,14.86,0,0,0,.57-1.38c.12-.35.25-.69.4-1s.11-.23.27-.19a3.82,3.82,0,0,0,1.39,0l.24,0c1.19-.15,2.58-.34,4-.57.88-.14,1.76-.31,2.66-.48l.71-.14c0,.35,0,.74,0,1.12A2.18,2.18,0,0,0,29,53.5a1.35,1.35,0,0,0,1,.26c.13,0,.23-.1.37-.07s.27.22.33.41a2.32,2.32,0,0,0,1.94,1.51,2.27,2.27,0,0,1,.94.31,2.67,2.67,0,0,0,3.19,0,1.41,1.41,0,0,0,.32-.55,1.31,1.31,0,0,1,.08-.21l.36-.62a9.63,9.63,0,0,0,.7-1.31A7.08,7.08,0,0,0,38.57,52a7.79,7.79,0,0,1,.22-.83,4.9,4.9,0,0,1,.4-.84l.17-.31c.08-.15.19-.31.29-.46a2.61,2.61,0,0,0,.55-1.25c0-.37,0-.36.54-.36h.95l2.52,0c.23,0,.48,0,.7,0H45a.35.35,0,0,1,0,.12c0,1,.13,2.1.21,2.9a1.85,1.85,0,0,0,1.48,1.37,1.71,1.71,0,0,0,1.74-.9.41.41,0,0,0,.05-.09,2.34,2.34,0,0,0,1,1,2.91,2.91,0,0,0,2.37.1l.28-.1c.51-.21.7-.27,1,.06a.73.73,0,0,0,.57.22l.2,0a.39.39,0,0,0,.43-.26l.51-1.83a2.25,2.25,0,0,0,1.4.87.94.94,0,0,0,.87-.25l.1-.11a5,5,0,0,0,1.18-1.75,26.25,26.25,0,0,0,1-4.31,8.91,8.91,0,0,0-2-6.8,2.36,2.36,0,0,0,1.12-.53,8.79,8.79,0,0,0,.66-.7,5.78,5.78,0,0,1,.52-.57,4.51,4.51,0,0,0,1.11-2.14A3.85,3.85,0,0,0,60.87,32.77ZM54.78,46.69l-.14-.06a.37.37,0,0,0-.29,0,.35.35,0,0,0-.22.19l-.08.14a2.77,2.77,0,0,0-.2.46,4.5,4.5,0,0,0-.08.51c0,.12,0,.25-.05.37s-.07.24-.11.37a3.81,3.81,0,0,0-.13.45c-.11.53-.22,1.06-.33,1.62v.05a.9.9,0,0,0-1.25,0,.33.33,0,0,0-.14,0h-.17a1.24,1.24,0,0,0-.59.07,1.26,1.26,0,0,1-1,.19c-.2-.08-.37-.34-.53-.79a.47.47,0,0,0-.06-.15s0-.09,0-.14a1.23,1.23,0,0,0-.56-.84,1.17,1.17,0,0,0-.93-.07.39.39,0,0,0-.27.3,2.06,2.06,0,0,1-.69,1.15l-.08.07c-.08.07-.19.19-.17.23a.74.74,0,0,1-.09-.38c0-.52,0-1,0-1.56,0-.33,0-.66,0-1a1.36,1.36,0,0,0-1.06-1.32,5,5,0,0,0-2-.15,19.92,19.92,0,0,1-3.05-.11,2.29,2.29,0,0,0-1.51.43c-.27.22-.28.55-.39.86a4.85,4.85,0,0,1-.53,1.1,2.84,2.84,0,0,0-.42.68c0,.16-.11.33-.16.5-.14.42-.28.82-.39,1.22-.07.23-.12.47-.17.71a7.59,7.59,0,0,1-.29,1,4.62,4.62,0,0,1-.5.86l-.34.5a.87.87,0,0,1-.62.51,2.06,2.06,0,0,1-.7,0,5.48,5.48,0,0,1-1.92-.7,2.46,2.46,0,0,1-.66-.44c-.2-.24-.27-.57-.46-.82a1.77,1.77,0,0,0-.92-.74,1.75,1.75,0,0,0-.79.05v-.21c0-.56,0-1.15,0-1.74a1.49,1.49,0,0,0-.51-1.16,1.29,1.29,0,0,0-1.08-.18,9.5,9.5,0,0,0-1.61.47,5.14,5.14,0,0,1-1.92.4,13.71,13.71,0,0,0-2,.26l-.95.16-.55.07c-.88.13-1.8.26-2.7.35a1,1,0,0,0-.87.64c-.06.14-.12.29-.17.44a5.83,5.83,0,0,1-.32.75,4,4,0,0,0-.31.83,1.83,1.83,0,0,1-.39.88l-.26.27c-.5.54-.81.84-1.42.66a.66.66,0,0,0-.23,0l-.23,0-.12,0H13.7c.08-.92.08-1.53-.28-1.94a1.34,1.34,0,0,0-1-.41.39.39,0,0,0-.37.26l-.36,1.05c-.29,0-.43-.07-.56-.4a1.79,1.79,0,0,0-.64-.78,1,1,0,0,0-1.05,0,4.05,4.05,0,0,0-.54.56,3.16,3.16,0,0,1-.34.38,5.9,5.9,0,0,1-.62.5l-.25.19-.34.25h0v-.13c0-.25,0-.5,0-.74s0-.46,0-.68,0-.52,0-.78a17.39,17.39,0,0,1,.13-2.16,17.94,17.94,0,0,1,.39-1.88c.09-.35.17-.7.25-1a6,6,0,0,0,.09-.61,4.1,4.1,0,0,1,.17-.82,8.47,8.47,0,0,1,.84-1.84,3.84,3.84,0,0,0,.27-.49,1.72,1.72,0,0,1,.69-.86,13.8,13.8,0,0,1,2.39-1.35,3,3,0,0,1,.93.07c.52.06,1,.08,1.55.16,1.38.2,2.76.43,4.14.66l1.91.31.72.13a16.75,16.75,0,0,0,1.75.25l.3,0a14.23,14.23,0,0,0,4.5-.2c.67-.17,1.33-.39,2-.6l.73-.24a.66.66,0,0,0,.29-.21l.41-.34c.33-.28.67-.56,1-.82a4.32,4.32,0,0,1,.58-.36l.34-.19.45-.3.41-.33.09-.08a.94.94,0,0,0,.28-.22L35,38.8a3.3,3.3,0,0,0,.58-.41,2.31,2.31,0,0,1,.46-.33,8.8,8.8,0,0,0,1.47-1c.22-.17.45-.35.68-.51a1.67,1.67,0,0,1,.51-.21,11,11,0,0,0,3.57-1.87A1.71,1.71,0,0,1,43.75,34c1,.2,1.92.31,2.86.43l.25,0a6.27,6.27,0,0,0,.75,0,3.57,3.57,0,0,1,1,.09l.17,0a42.83,42.83,0,0,1,4.54,1.46l.13.06c1.05.43,2.05.83,2.31,2a.85.85,0,0,0,.25.42,5.71,5.71,0,0,1,1.41,2.18A7.37,7.37,0,0,1,58,44c-.06.57-.17,1.13-.28,1.76l-.06.36a4.62,4.62,0,0,1-.24,1c-.09.23-.16.46-.23.69a2.89,2.89,0,0,1-.59,1.25l-.13.14a3.55,3.55,0,0,1-.52.51,4.55,4.55,0,0,1-.32-1.63,2.06,2.06,0,0,0-.28-1A.9.9,0,0,0,54.78,46.69ZM3.58,31a4.18,4.18,0,0,1-.34-1.09c-.08-.39-.18-.78-.26-1.17a10,10,0,0,1-.25-2.88,3.62,3.62,0,0,0,0-.87s-.12-.93.67-1.14a3.5,3.5,0,0,0,1.27-.76,5.4,5.4,0,0,1,2.11-.9L7.36,22a1.07,1.07,0,0,0,.83-1.46.61.61,0,0,1,0-.11l0-.14L8.31,20c0-.14,0-.28.08-.42L8.48,19a4.12,4.12,0,0,1,.43-1.58A1.08,1.08,0,0,0,9,16.82v-.16l0-.24c0-.41.06-.81.1-1.21a2.34,2.34,0,0,1,.08-.29l.11-.37c.14-.47.28-.94.43-1.41l.09-.32a1.57,1.57,0,0,1,.18-.51c.45-.52.53-1.91.59-3.42V8.47a2.32,2.32,0,0,0-.15-1,.77.77,0,0,1-.06-.57,1,1,0,0,0,0-.52,1.49,1.49,0,0,1,0-.17c0-.22.07-.45.12-.67s.1-.56.13-.84a.57.57,0,0,0,0-.32.61.61,0,0,0,.05-.12c.11-.24.22-.47.32-.7A8.6,8.6,0,0,1,11.8,2a2,2,0,0,1,.84-.46l.3-.11.05,0,.53.59C14.35,3,15.21,4,16,5a2.81,2.81,0,0,1,.41.87l.12.32a3.19,3.19,0,0,1,.13.44,2.33,2.33,0,0,0,.41,1,3.06,3.06,0,0,0,1.36.79,17.08,17.08,0,0,0,5.07.73,24.33,24.33,0,0,1,3.13.34c.74.12,1.47.26,2.21.39,1.18.22,2.4.44,3.62.58A9.73,9.73,0,0,0,36,10.23l.1,0a17.13,17.13,0,0,0,2.49-.79,2,2,0,0,0,.83-.84l.23-.31A1.68,1.68,0,0,0,40,7.16a1.14,1.14,0,0,1,.22-.42,2.51,2.51,0,0,0,.29-.51,5.35,5.35,0,0,0,.25-.93c0-.1.05-.21.07-.31L41,4.9a1.28,1.28,0,0,0,.49-.82A2,2,0,0,1,42,3.35a3.5,3.5,0,0,0,.27-.28,2.72,2.72,0,0,1,.24-.24c.06.4.11.77.13,1.14a8.81,8.81,0,0,1,0,.89,6.15,6.15,0,0,0,.05,1.48A7.54,7.54,0,0,0,43.25,8c.1.22.2.44.29.67l.69,1.74.23.62c.28.72.57,1.44.83,2.17l.33.85a19.36,19.36,0,0,1,.79,2.33,10,10,0,0,1,.14,2.5v.53a23.16,23.16,0,0,1-.21,3.23,47.37,47.37,0,0,1-1.16,4.76,5.22,5.22,0,0,1-.41,1,6.85,6.85,0,0,0-.43,1,4.81,4.81,0,0,1-1,1.57,12.13,12.13,0,0,1-2.15,2.38,16.84,16.84,0,0,1-2.93,1.65l-.14.06a24.08,24.08,0,0,0-3,1.79c-.67.44-1.32.92-2,1.39s-1.26.92-1.9,1.35A16.68,16.68,0,0,1,28.66,41a5.8,5.8,0,0,1-3,.48c-.55-.06-1.1-.08-1.66-.11s-1.13,0-1.69-.11c-.75-.09-1.51-.22-2.26-.35l-1.78-.28-1.06-.15c-1.32-.19-2.68-.38-4-.45a7.05,7.05,0,0,1-4.71-2.26,16.23,16.23,0,0,1-3-3.78c-.27-.48-.57-.93-.87-1.37A12.46,12.46,0,0,1,3.58,31Z"/><path d="M8,29.81a1.91,1.91,0,0,0,.91,1.66,2.47,2.47,0,0,0,1.94.3,2,2,0,0,0,1.35-.89.47.47,0,0,1,.06-.09c.12.22.24.42.36.62a.86.86,0,0,0,.37.36l.29.13a3.3,3.3,0,0,0,.94.34,4.75,4.75,0,0,0,.81.07A2.68,2.68,0,0,0,17.45,31c.4-.64.75-1.3,1.13-2a5.2,5.2,0,0,0,.27-.69L19,28a.37.37,0,0,0-.07-.38.37.37,0,0,0-.37-.12,2.51,2.51,0,0,0-2,2.08.54.54,0,0,1-.12.18l-.3.41-.33.45a.56.56,0,0,0-.09.17,1.28,1.28,0,0,1-1,.19,1.34,1.34,0,0,1-.84-.71,12.92,12.92,0,0,1-.55-1.17L13,28.44a.43.43,0,0,0-.23-.21.42.42,0,0,0-.31,0,2.38,2.38,0,0,1-.31.17,2,2,0,0,0-.71.51,5.4,5.4,0,0,0-.59,1c-.07.14-.14.29-.21.41a1.15,1.15,0,0,1-.74.13,5.52,5.52,0,0,1-.32-.78l0-.11a3.7,3.7,0,0,1,0-2.54.37.37,0,0,0-.08-.36.35.35,0,0,0-.35-.12l-.35,0a1,1,0,0,0-.8.31,2.1,2.1,0,0,0-.34,1.31,3.62,3.62,0,0,0,.17.82A3.07,3.07,0,0,1,8,29.81Z"/><path d="M15.91,17.41a.76.76,0,0,0,.29.45l.13.13a.37.37,0,0,0,.37.11l0,.37a.41.41,0,0,0,.13.27.38.38,0,0,0,.25.09h0a1.49,1.49,0,0,0,1.27-1.36c.06-.82-.22-.92-.33-1s-.08,0-.14-.22A1.58,1.58,0,0,0,17.8,16a1.27,1.27,0,0,0-1-.61,1,1,0,0,0-.73.33.85.85,0,0,0-.22.66v.31A6,6,0,0,0,15.91,17.41Z"/><path d="M31,19.83a.41.41,0,0,0,.19.05.46.46,0,0,0,.33-.15.59.59,0,0,0,.22-.34c0-.12.05-.23.08-.35A3.86,3.86,0,0,0,32,17.86a1.61,1.61,0,0,0-.71-1,.91.91,0,0,0-.72-.07l-.23,0A.37.37,0,0,0,30,17,2.72,2.72,0,0,0,31,19.83Z"/></g></g></svg>