<svg xmlns="http://www.w3.org/2000/svg" viewBox="0 0 48.83 58"><g id="f8bf4070-585c-415b-b4bf-012af23c06e5" data-name="Layer 2"><g id="b9b88b95-d361-4813-9d45-3681c5c82cde" data-name="Шар 1"><path d="M48.76,18.42a4.07,4.07,0,0,1-.16-.83A3.68,3.68,0,0,0,48.15,16l0-.2a4.38,4.38,0,0,0-.12-.61c-.14-.43-.3-.85-.46-1.26l-.16-.43c-.18-.48-.37-1-.59-1.44a17,17,0,0,0-1-1.69,10.29,10.29,0,0,0-.61-.86L45,9.18l-.1-.11c0-.31,0-.61,0-.92A17.44,17.44,0,0,0,44.74,6a6.54,6.54,0,0,0-.45-1.6c-.07-.2-.15-.41-.22-.62a.61.61,0,0,0-.24-.31,1.71,1.71,0,0,0-2.29,0l-.48.4a10.73,10.73,0,0,0-1.29,1.16,2.07,2.07,0,0,1-2.62.7,4.9,4.9,0,0,0-.61-.21,2.18,2.18,0,0,1-.67-.26A8.65,8.65,0,0,0,32.3,3.85c-.47-.07-.95-.12-1.43-.16l-1.28-.14c-.29,0-.57-.1-.86-.16a9,9,0,0,0-1.39-.22c-1.3-.06-2.62-.06-3.9-.06h-.76c-1.43,0-2.85,0-4.28,0h-.52a34.15,34.15,0,0,0-3.48.2l-.88.14a10,10,0,0,1-1.94.19c-1.09,0-2.18,0-3.26,0h-1a.66.66,0,0,1-.68-.41c-.3-.58-.63-1.15-.95-1.71L5.33.91A1.78,1.78,0,0,0,4.89.29a1.6,1.6,0,0,0-1-.29c-.52,0-.7.68-.71.92s0,.53,0,.79,0,.38,0,.57V3.92a14.49,14.49,0,0,1-.13,2.94A8.26,8.26,0,0,1,1.68,9.55c-.35.53-.66,1-.77,1.23a1,1,0,0,1-.08.14,1.56,1.56,0,0,0-.2.45c-.15.55-.31,1.2-.42,1.84a8.82,8.82,0,0,0-.16,1.52c0,.47,0,.94,0,1.41s0,.63,0,.95c0,.52,0,1,0,1.57s0,1.21,0,1.81c0,1.68,0,3.35,0,5,0,.25,0,.49,0,.74s0,.39,0,.58v.55a8.34,8.34,0,0,0,0,1c0,.35.08.7.13,1.06s.09.54.12.82A7.92,7.92,0,0,0,2,34.89a24.36,24.36,0,0,0,2,2c.57.51.76.94.62,1.44a6.39,6.39,0,0,1-.55,1.32L3.92,40c-.1.2-.22.39-.33.58A3.89,3.89,0,0,0,3,42a7.42,7.42,0,0,0,0,2.78,17.51,17.51,0,0,0,1.25,3.52c.17.38.33.76.49,1.14.46,1.13.82,2.07,1.13,3a1.86,1.86,0,0,0,2,1.52c1,0,1.92-.09,2.84-.17l1-.08a.93.93,0,0,0,.46-.16,2.47,2.47,0,0,0,.88,1,1.78,1.78,0,0,0,2.31-.7c.16-.24.32-.48.49-.71a5.66,5.66,0,0,0,.61.9,1.75,1.75,0,0,0,2,.63l.33-.11a8.23,8.23,0,0,0,1.52-.62c.34-.21.49-.22.66-.16a3.84,3.84,0,0,0,2.44,0,.9.9,0,0,0,.65-.7l0-.33a9.39,9.39,0,0,0,.06-1.84,4.13,4.13,0,0,1,0-.49v-.19c0-.32.05-.64.05-1s0-.37,0-.55a3.38,3.38,0,0,1,0-.78,7.7,7.7,0,0,1,.56-1.49.61.61,0,0,1,.25-.23,12.18,12.18,0,0,1,4-.58h.07a5.92,5.92,0,0,1,2.08.48,12.88,12.88,0,0,1,2.07,1,.63.63,0,0,1,.16.33,2.9,2.9,0,0,1-.44,2,.33.33,0,0,1-.14.13,1.17,1.17,0,0,1-1.23-.36,2.13,2.13,0,0,0-1.44-.7,11.37,11.37,0,0,0-2.64.26,2.8,2.8,0,0,0-2.23,1.81,3.28,3.28,0,0,0,1.23,3.8,18.14,18.14,0,0,0,4.07,2l.32.12c.66.25,1.33.47,2,.69l.61.21.55.19a8.56,8.56,0,0,0,1.54.45,6.94,6.94,0,0,0,1.2.1,6.3,6.3,0,0,0,2-.32,15.49,15.49,0,0,0,2-.83c.28-.14.55-.3.81-.46a6.22,6.22,0,0,1,.82-.46,7.06,7.06,0,0,0,2.21-1.72,1.42,1.42,0,0,0,.35-1.14,2.43,2.43,0,0,1,0-.27,6.06,6.06,0,0,0,0-1.42,5,5,0,0,1-.06-.54,10.29,10.29,0,0,0-.19-1.37,2.7,2.7,0,0,1,0-.28,2.45,2.45,0,0,0-.35-1.11,3.49,3.49,0,0,1-.49-1.31,6.31,6.31,0,0,0-.35-1.15l0-.1a1.06,1.06,0,0,0-.42-.59l-.26-.16a17.62,17.62,0,0,0-2-1.11,2.11,2.11,0,0,1-1.1-1.19.66.66,0,0,1,0-.14,2.08,2.08,0,0,0,0-.25l0-.8c0-.43,0-.86-.07-1.29,0-.18,0-.36,0-.54a5,5,0,0,0-.07-1.22c0-.08,0-.1.05-.17a6.78,6.78,0,0,1,.73-.52A3.58,3.58,0,0,0,41.86,36a6.28,6.28,0,0,0,1.52-1.71c.17-.25.34-.5.52-.73a5.26,5.26,0,0,0,.52-.87c.06-.13.13-.27.2-.4s.3-.52.46-.78c.3-.52.61-1.05.88-1.58a8.87,8.87,0,0,0,.48-1.16l.2-.51a5.87,5.87,0,0,1,.49-.92,5.46,5.46,0,0,0,.77-1.77,7.57,7.57,0,0,1,.32-1.17c.08-.25.16-.5.23-.75a1.85,1.85,0,0,0,0-.44c0-.07,0-.16,0-.2a6.16,6.16,0,0,0,.25-2.19V19.45a2,2,0,0,1,0-.23A1.85,1.85,0,0,0,48.76,18.42Zm-9.91,18a2.11,2.11,0,0,0-1.09,2.07,32.31,32.31,0,0,1,.06,3.55,2.22,2.22,0,0,0,.51,1.71l.11.13a2.76,2.76,0,0,0,1.24.91,3.9,3.9,0,0,1,1.08.54c.23.15.46.29.7.42a1,1,0,0,1,.43.36c.2.55.36,1.1.52,1.66l.3,1a10.5,10.5,0,0,1,.55,3.47,1.5,1.5,0,0,0,0,.3,1.76,1.76,0,0,1-.06.6,5.73,5.73,0,0,1-1.44,1.24,16.39,16.39,0,0,1-1.61.89l-.46.22c-.35.18-.72.35-1.09.51l-.31.14a3.71,3.71,0,0,1-2.34.23,30.86,30.86,0,0,1-3.46-1.1l-.43-.15c-.5-.18-1-.4-1.48-.62-.32-.14-.65-.29-1-.42a8.85,8.85,0,0,1-2.11-1.21,3.47,3.47,0,0,1-.41-.46L27,52.38l-.1-.54a1.6,1.6,0,0,0-.05-.21l0-.07A2.4,2.4,0,0,1,27,51l.07-.19s0-.08,0-.06A3.49,3.49,0,0,1,28.65,50l.31-.05c.63-.09,1-.12,1.28.22a3.63,3.63,0,0,0,3.8.65,1,1,0,0,0,.38-.42l.13-.23a3.54,3.54,0,0,0,.64-2s0-.1,0-.16a1.38,1.38,0,0,0,0-.6,1,1,0,0,0,.09-.21.89.89,0,0,0-.3-.85,3.39,3.39,0,0,0-.89-.58c-.17-.09-.36-.16-.55-.24a2.77,2.77,0,0,1-.69-.33,5.22,5.22,0,0,0-2.37-1,12.92,12.92,0,0,0-2.63-.12h-.16a7.59,7.59,0,0,0-1.08.12c-.23,0-.47.07-.71.09a3.22,3.22,0,0,0-3.36,3,14.56,14.56,0,0,0-.14,2.46c0,.3,0,.6,0,.91,0,.47,0,1,0,1.42v.22a1.64,1.64,0,0,1-.8-.09,3.7,3.7,0,0,0-1.9,0,6.82,6.82,0,0,0-1.37.62l-.37.21c-.12-.19-.25-.37-.35-.57l-.06-.1a1.59,1.59,0,0,1-.18-.43,2.37,2.37,0,0,1,0-.51,5.48,5.48,0,0,0,.05-.57,1.32,1.32,0,0,0-.3-1,1.35,1.35,0,0,0-1.07-.26A1.22,1.22,0,0,0,15,50.73,5.74,5.74,0,0,1,13.8,53l-.07-.13a5.13,5.13,0,0,0-.36-.65,1.46,1.46,0,0,0-1.1-.78,1.16,1.16,0,0,0-.91.44,1.09,1.09,0,0,0-1.16-.32.54.54,0,0,0-.43.51c0,.07,0,.21,0,.33-.6,0-1.23.05-1.86,0-.08,0-.13,0-.14,0a4.35,4.35,0,0,0-.49-1.26c-.27-.51-.39-1.05-.61-1.58l-.81-1.84c-.26-.61-.37-1.23-.63-1.84A2.77,2.77,0,0,1,5,45.32a5.44,5.44,0,0,0-.17-.78,4.65,4.65,0,0,1-.2-1.89c.12-.62.62-1,.71-1.65a1.68,1.68,0,0,1,.24-.52,5.52,5.52,0,0,0,.28-.54,3.23,3.23,0,0,1,.2-.42,2.1,2.1,0,0,0,.21-2.07,1.47,1.47,0,0,1-.08-.25,1.88,1.88,0,0,0-.44-.85c-.31-.32-.64-.63-1-.94l-.71-.68a4.93,4.93,0,0,1-1.36-1.95,15.44,15.44,0,0,1-.65-2.6,28,28,0,0,1-.19-2.9l0-.54c0-.53,0-1.06,0-1.59V24.09c0-.64-.12-1.23-.1-1.88s.05-1.52.05-2.28A35.25,35.25,0,0,1,1.9,14.3,14.66,14.66,0,0,1,2.12,12,7.47,7.47,0,0,1,3.49,9.9,14.71,14.71,0,0,0,4.55,7.49a4.23,4.23,0,0,0,.5-2.32C5,5,5,4.76,5,4.55s0-.41,0-.61A1.82,1.82,0,0,0,6.2,5a8.41,8.41,0,0,0,1.64.24c1.79,0,3.4.06,5,0A5.45,5.45,0,0,0,14.11,5,5.86,5.86,0,0,1,15,4.8c1-.09,2.05-.15,3.32-.17q3,0,6,0h.59a17,17,0,0,1,3.73.27,17.67,17.67,0,0,0,2.14.28l.23,0a7.78,7.78,0,0,1,2.75.7c.23.11.46.24.68.37a9.23,9.23,0,0,0,1.3.64c1.42.53,3.37,1.25,5.06-.46a3.22,3.22,0,0,1,.41-.32,4.87,4.87,0,0,0,.43-.33.63.63,0,0,0,.23-.38c.24-.19.5-.36.76-.54l0,.08A4.26,4.26,0,0,1,43,7.18a4.94,4.94,0,0,0,1,3.67,8.81,8.81,0,0,1,1.2,2,35,35,0,0,1,1.25,3.49,11.62,11.62,0,0,1,.47,3.63v.62a9.11,9.11,0,0,1-.2,2.35c-.08.3-.13.6-.18.9A7.57,7.57,0,0,1,46.24,25a16.31,16.31,0,0,1-.74,1.6c-.16.33-.33.66-.48,1s-.37.85-.55,1.27-.28.68-.43,1l-.15.35a7.13,7.13,0,0,1-.57,1.14c-.31.47-.65.92-1,1.38l-.74,1A9.48,9.48,0,0,1,38.85,36.47Z"/><path d="M29.38,29.13a.52.52,0,0,0-.52.17.53.53,0,0,0-.08.54c.16.41,0,.62-.46,1.1l-.25.25a2.44,2.44,0,0,0-.33.39,1.21,1.21,0,0,1-1.18.54,5.41,5.41,0,0,1-3.18-1,.31.31,0,0,1-.06-.13c0-.26,0-.53,0-.8v-.54c0-.54,0-1.09,0-1.64a.87.87,0,0,0-.31-.56.62.62,0,0,0-.8-.07,1.05,1.05,0,0,0-.31.32l-.42.78c-.26.5-.51,1-.8,1.42a8.18,8.18,0,0,1-1.15,1.41,6.44,6.44,0,0,1-1.21.91l-.14.09a3.88,3.88,0,0,1-1.21.57,7.19,7.19,0,0,1-4-.67,1,1,0,0,0-1,0,.94.94,0,0,0-.32.85,1.49,1.49,0,0,0,.11.44.52.52,0,0,0,.46.38c.05,0,.1,0,.1,0a8.7,8.7,0,0,0,3.65.87h.17a3.6,3.6,0,0,0,2.57-.85,3.2,3.2,0,0,1,.74-.54A5.68,5.68,0,0,0,21.81,31v.59a1.27,1.27,0,0,0,.41.9,1.22,1.22,0,0,0,.51.28.7.7,0,0,0,.36.42l.12.06a6.65,6.65,0,0,0,1.42.51,13.14,13.14,0,0,0,2.26.25,1.6,1.6,0,0,0,1.49-.69,8.67,8.67,0,0,1,.8-.94l.43-.47.2-.22a4.31,4.31,0,0,0,.58-.74,1.08,1.08,0,0,0,.07-1A1.49,1.49,0,0,0,29.38,29.13Z"/><path d="M30.8,19.55a.67.67,0,0,0-.12-.36h0l-.09-.13a3.12,3.12,0,0,0-.71-.8c-.31-.22-.74-.11-1.28.31a1.22,1.22,0,0,0-.32.45l-.05.1a1.21,1.21,0,0,0,0,1.72,1.8,1.8,0,0,0,1.28.65h0a1.05,1.05,0,0,0,.79-.32,1.92,1.92,0,0,0,.4-.87c0-.09,0-.18.08-.27a.55.55,0,0,0,0-.42Z"/><path d="M13.93,20.75h0a1.47,1.47,0,0,0,1.54-1.57.86.86,0,0,0,0-.16.87.87,0,0,0-.26-.68.78.78,0,0,0-.6-.2c0-.06,0-.13.07-.2a.55.55,0,0,0-.06-.48.57.57,0,0,0-.44-.26.87.87,0,0,0-.65.07,6.84,6.84,0,0,0-1.13.77,1.42,1.42,0,0,0-.4,1,1.57,1.57,0,0,0,.49,1.13A2,2,0,0,0,13.93,20.75Z"/></g></g></svg>